<?xml version="1.0" standalone="no"?>
<!DOCTYPE svg PUBLIC "-//W3C//DTD SVG 20010904//EN"
 "http://www.w3.org/TR/2001/REC-SVG-20010904/DTD/svg10.dtd">
<svg version="1.0" xmlns="http://www.w3.org/2000/svg"
 width="470.000000pt" height="470.000000pt" viewBox="0 0 470.000000 470.000000"
 preserveAspectRatio="xMidYMid meet">
<metadata>
Created by potrace 1.11, written by Peter Selinger 2001-2013
</metadata>
<g transform="translate(0.000000,470.000000) scale(0.100000,-0.100000)"
fill="#000000" stroke="none">
<path d="M1760 4681 c-247 -67 -351 -218 -337 -490 5 -90 10 -113 36 -165 42
-84 97 -140 200 -202 l55 -34 12 40 c6 21 35 72 65 112 29 41 60 98 70 130 20
64 29 173 19 230 -4 21 -5 38 -3 38 2 0 16 -9 31 -20 15 -10 50 -25 77 -31
149 -35 208 -101 198 -223 -8 -101 -37 -170 -103 -246 -34 -40 -38 -75 -14
-126 51 -108 210 -181 408 -188 172 -6 311 41 427 146 83 74 163 250 152 333
-6 45 -24 85 -48 105 -14 12 -15 10 -5 -15 20 -53 -2 -109 -62 -159 -18 -14
-41 -26 -52 -27 -105 -6 -180 52 -239 183 -41 89 -59 102 -137 99 -43 -1 -60
3 -73 16 -17 19 -34 59 -41 96 -14 68 -62 186 -97 239 -51 74 -108 116 -207
149 -97 32 -234 36 -332 10z"/>
<path d="M1380 3499 c-85 -13 -129 -39 -155 -89 -14 -28 -9 -75 23 -215 12
-49 24 -106 27 -125 3 -19 22 -107 41 -195 19 -88 38 -195 41 -237 l5 -77 -87
-178 c-154 -313 -167 -345 -212 -543 -17 -72 -22 -276 -10 -384 8 -71 16 -99
18 -55 1 68 23 266 34 319 3 14 10 54 15 90 24 167 93 345 192 495 112 171
123 197 122 295 0 56 -8 112 -23 165 -48 168 -79 369 -82 520 -2 117 12 131
181 186 47 15 76 28 65 30 -53 5 -155 4 -195 -2z"/>
<path d="M2210 3394 c-121 -95 -382 -390 -414 -468 -2 -6 -26 14 -52 44 -83
95 -193 202 -203 196 -16 -10 -32 -98 -32 -180 0 -100 34 -227 92 -340 44 -87
71 -126 140 -203 62 -69 83 -132 80 -240 -1 -36 -13 -57 -94 -165 -135 -178
-202 -285 -276 -443 -63 -131 -140 -347 -166 -465 -42 -184 -53 -244 -70 -395
-6 -49 -6 -368 0 -447 5 -80 14 -165 22 -218 4 -25 6 -48 5 -53 -4 -14 45 -7
114 17 323 114 569 242 725 382 44 39 127 92 191 123 64 31 156 48 268 50 126
2 289 27 373 56 138 48 248 166 297 320 33 104 107 232 174 303 44 47 127 100
189 121 97 33 294 26 400 -15 48 -18 48 -12 1 105 -99 248 -247 435 -489 619
-22 17 -182 109 -215 124 -107 49 -137 61 -219 88 -49 17 -152 43 -229 59
-198 42 -263 72 -348 159 -93 95 -140 206 -136 317 12 289 11 307 -32 473 -19
74 -34 112 -43 112 -5 0 -28 -16 -53 -36z"/>
</g>
</svg>
