<?xml version="1.0" encoding="UTF-8"?>
<svg width="144px" height="130px" viewBox="0 0 144 130" version="1.1" xmlns="http://www.w3.org/2000/svg" xmlns:xlink="http://www.w3.org/1999/xlink">
    <!-- Generator: Sketch 49 (51002) - http://www.bohemiancoding.com/sketch -->
    <title>Group 20</title>
    <desc>Created with Sketch.</desc>
    <defs>
        <path d="M47.0498418,69.4656489 L32.4756459,83.2712899 C32.4756459,83.2712899 32.4756459,78.6694096 32.4756459,69.4656489 L11,69.4656489 C4.92486775,69.4656489 7.43989126e-16,64.5407811 0,58.4656489 L0,11 C-7.43989126e-16,4.92486775 4.92486775,1.11598369e-15 11,0 L81,0 C87.0751322,-1.11598369e-15 92,4.92486775 92,11 L92,58.4656489 C92,64.5407811 87.0751322,69.4656489 81,69.4656489 L47.0498418,69.4656489 Z" id="path-1"></path>
        <path d="M104.942016,110.152672 L104.877416,129.59365 L85.9662478,110.152672 L56,110.152672 C47.7157288,110.152672 41,103.436943 41,95.1526718 L41,49.7328244 C41,41.4485532 47.7157288,34.7328244 56,34.7328244 L129,34.7328244 C137.284271,34.7328244 144,41.4485532 144,49.7328244 L144,95.1526718 C144,103.436943 137.284271,110.152672 129,110.152672 L104.942016,110.152672 Z" id="path-2"></path>
    </defs>
    <g id="Page-1" stroke="none" stroke-width="1" fill="none" fill-rule="evenodd">
        <g id="Artboard-3" transform="translate(-1155.000000, -2942.000000)">
            <g id="Group-20" transform="translate(1155.000000, 2942.000000)">
                <g id="Combined-Shape">
                    <use fill="#99A4ED" fill-rule="evenodd" xlink:href="#path-1"></use>
                    <path stroke="#606061" stroke-width="3" d="M33.9756459,79.7842461 L46.45218,67.9656489 L47.0498418,67.9656489 L81,67.9656489 C86.2467051,67.9656489 90.5,63.712354 90.5,58.4656489 L90.5,11 C90.5,5.75329488 86.2467051,1.5 81,1.5 L11,1.5 C5.75329488,1.5 1.5,5.75329488 1.5,11 L1.5,58.4656489 C1.5,63.712354 5.75329488,67.9656489 11,67.9656489 L33.9756459,67.9656489 L33.9756459,69.4656489 C33.9756459,75.7745139 33.9756459,75.793179 33.9756459,79.7842461 Z"></path>
                </g>
                <path d="M1.58954954,54.7417747 C2.48049796,55.9497191 2.92597218,56.5536913 2.92597218,56.5536913 C3.92531228,57.5659439 4.42498232,58.0720702 4.42498232,58.0720702 C5.0446177,58.6012775 5.35443539,58.8658812 5.35443539,58.8658812 C6.20020206,59.2903956 6.6230854,59.5026527 6.6230854,59.5026527 C7.42344776,59.8489787 7.82362894,60.0221417 7.82362894,60.0221417 L9.47754794,60.3193239 C26.0258632,60.3193239 34.3000209,60.3193239 34.3000209,60.3193239 C34.1157328,55.2706507 34.0235887,52.7463141 34.0235887,52.7463141 C33.9723976,50.5996672 33.946802,49.5263438 33.946802,49.5263438 C34.0002189,48.4933293 34.0269273,47.9768221 34.0269273,47.9768221 C34.1629177,47.0007924 34.2309129,46.5127776 34.2309129,46.5127776 C34.4777432,45.7273597 34.6011583,45.3346507 34.6011583,45.3346507 C35.0380636,44.3515532 35.2565162,43.8600044 35.2565162,43.8600044 C35.710782,43.0608925 35.9379148,42.6613365 35.9379148,42.6613365 C36.3766007,41.7800606 36.5959436,41.3394226 36.5959436,41.3394226 C37.2006667,40.7070684 37.5030283,40.3908914 37.5030283,40.3908914 C38.138021,39.8475483 38.4555174,39.5758767 38.4555174,39.5758767 C39.4239202,38.9996239 39.9081217,38.7114974 39.9081217,38.7114974 C40.5166285,38.3355747 40.820882,38.1476133 40.820882,38.1476133 C41.6185735,37.8783714 42.0174192,37.7437504 42.0174192,37.7437504 C43.4020283,37.2050456 44.0943329,36.9356932 44.0943329,36.9356932 L45.6147097,36.4132225 L51.5640106,52.7463141 L48.875808,76.1372335 C43.5058573,74.2174213 40.820882,73.2575152 40.820882,73.2575152 C36.2486228,77.0891883 33.9624932,79.0050248 33.9624932,79.0050248 C33.8098101,71.6294738 33.7334685,67.9416984 33.7334685,67.9416984 C18.0480578,67.9739456 10.2053524,67.9900692 10.2053524,67.9900692 C8.67674044,67.5929428 7.91243444,67.3943796 7.91243444,67.3943796 C6.4768568,66.6933345 5.75906797,66.342812 5.75906797,66.342812 C4.56586925,65.3168654 3.96926989,64.8038921 3.96926989,64.8038921 C2.93187029,63.3231718 2.41317049,62.5828116 2.41317049,62.5828116 C1.90949417,61.183151 1.65765602,60.4833207 1.65765602,60.4833207 C1.52033022,59.154118 1.45166732,58.4895167 1.45166732,58.4895167 L1.21396237,56.5083023 C1.46435382,55.3306172 1.58954954,54.7417747 1.58954954,54.7417747 Z" id="Path-40" fill="#8690D4"></path>
                <path d="M33.9756459,79.7842461 L46.45218,67.9656489 L47.0498418,67.9656489 L81,67.9656489 C86.2467051,67.9656489 90.5,63.712354 90.5,58.4656489 L90.5,11 C90.5,5.75329488 86.2467051,1.5 81,1.5 L11,1.5 C5.75329488,1.5 1.5,5.75329488 1.5,11 L1.5,58.4656489 C1.5,63.712354 5.75329488,67.9656489 11,67.9656489 L33.9756459,67.9656489 L33.9756459,69.4656489 C33.9756459,75.7745139 33.9756459,75.793179 33.9756459,79.7842461 Z" id="Combined-Shape-Copy-2" stroke="#606061" stroke-width="3"></path>
                <ellipse id="Oval-5-Copy-2" stroke="#606061" stroke-width="2" fill="#FFFFFF" cx="63" cy="35.2290076" rx="3.5" ry="3.47328244"></ellipse>
                <ellipse id="Oval-5-Copy" stroke="#606061" stroke-width="2" fill="#FFFFFF" cx="46" cy="35.2290076" rx="3.5" ry="3.47328244"></ellipse>
                <g id="Combined-Shape">
                    <use fill="#FFFFFF" fill-rule="evenodd" xlink:href="#path-2"></use>
                    <path stroke="#606061" stroke-width="3" d="M103.389638,125.912951 L103.446992,108.652672 L129,108.652672 C136.455844,108.652672 142.5,102.608516 142.5,95.1526718 L142.5,49.7328244 C142.5,42.2769803 136.455844,36.2328244 129,36.2328244 L56,36.2328244 C48.5441559,36.2328244 42.5,42.2769803 42.5,49.7328244 L42.5,95.1526718 C42.5,102.608516 48.5441559,108.652672 56,108.652672 L85.9662478,108.652672 L86.5997408,108.652672 L103.389638,125.912951 Z"></path>
                </g>
                <path d="M142.1332,93.252412 C140.165024,95.225939 139.180936,96.2127025 139.180936,96.2127025 C137.882375,97.3316541 137.233094,97.8911299 137.233094,97.8911299 C136.274385,98.5842857 135.795031,98.9308637 135.795031,98.9308637 C134.360881,99.5537331 133.643806,99.8651678 133.643806,99.8651678 C131.3296,100.326301 130.172497,100.556867 130.172497,100.556867 C106.860222,100.911018 95.2040847,101.088093 95.2040847,101.088093 C66.9319592,101.058192 52.7958964,101.043242 52.7958964,101.043242 C51.9933202,101.015865 51.5920322,101.002176 51.5920322,101.002176 C50.8814137,100.766465 50.5261045,100.648609 50.5261045,100.648609 C49.823508,100.330378 49.4722097,100.171263 49.4722097,100.171263 C48.7386997,99.7677959 48.3719447,99.5660624 48.3719447,99.5660624 C47.6934136,99.1313352 47.3541481,98.9139716 47.3541481,98.9139716 C46.6392253,98.311295 46.2817639,98.0099566 46.2817639,98.0099566 C45.5789717,97.3719426 45.2275756,97.0529356 45.2275756,97.0529356 C44.6996988,96.4987992 44.4357604,96.221731 44.4357604,96.221731 C43.8444915,95.483724 43.548857,95.1147204 43.548857,95.1147204 C42.6686058,94.0285821 42.2284803,93.4855129 42.2284803,93.4855129 C42.485962,96.226488 42.6147029,97.5969755 42.6147029,97.5969755 C43.2353201,99.2518123 43.5456287,100.079231 43.5456287,100.079231 C44.4832067,101.669606 44.9519957,102.464793 44.9519957,102.464793 C45.9973796,103.742763 46.5200715,104.381748 46.5200715,104.381748 C47.7020225,105.328478 48.2929979,105.801844 48.2929979,105.801844 C49.5048841,106.511309 50.1108271,106.866042 50.1108271,106.866042 C51.779763,107.532403 52.6142309,107.865584 52.6142309,107.865584 C55.6149893,107.915095 57.1153685,107.939851 57.1153685,107.939851 C75.8428636,108.190901 85.2066111,108.316427 85.2066111,108.316427 C86.6912401,109.09346 87.4335546,109.481977 87.4335546,109.481977 C97.8754582,119.494099 103.09641,124.500159 103.09641,124.500159 C103.75831,113.784009 104.089261,108.425934 104.089261,108.425934 C121.687827,108.217793 130.48711,108.113722 130.48711,108.113722 C132.577291,107.592788 133.622382,107.33232 133.622382,107.33232 C135.292883,106.572567 136.128133,106.19269 136.128133,106.19269 C137.627632,104.916662 138.377381,104.278648 138.377381,104.278648 C139.641116,102.793703 140.272983,102.05123 140.272983,102.05123 C140.940362,100.307273 141.274051,99.4352947 141.274051,99.4352947 L141.813765,96.8213982 C142.026722,94.4420741 142.1332,93.252412 142.1332,93.252412 Z" id="Path-39" fill="#D8D8D8"></path>
                <path d="M103.389638,125.912951 L103.446992,108.652672 L129,108.652672 C136.455844,108.652672 142.5,102.608516 142.5,95.1526718 L142.5,49.7328244 C142.5,42.2769803 136.455844,36.2328244 129,36.2328244 L56,36.2328244 C48.5441559,36.2328244 42.5,42.2769803 42.5,49.7328244 L42.5,95.1526718 C42.5,102.608516 48.5441559,108.652672 56,108.652672 L85.9662478,108.652672 L86.5997408,108.652672 L103.389638,125.912951 Z" id="Combined-Shape-Copy" stroke="#606061" stroke-width="3"></path>
                <path d="M9.08418771,20.1019971 C9.08418771,14.4509962 9.08418771,11.6254957 9.08418771,11.6254957 C9.16470716,11.2312856 9.20496688,11.0341806 9.20496688,11.0341806 C9.39753925,10.6791356 9.49382544,10.5016131 9.49382544,10.5016131 C9.85556798,10.1349564 10.0364393,9.95162803 10.0364393,9.95162803 C10.5030951,9.7929993 10.736423,9.71368493 10.736423,9.71368493 L28.202995,9.63486259" id="Path-36" stroke="#606061" stroke-width="2"></path>
                <ellipse id="Oval-5" stroke="#606061" stroke-width="2" fill="#FFFFFF" cx="28.5" cy="35.2290076" rx="3.5" ry="3.47328244"></ellipse>
                <ellipse id="Oval-5-Copy-3" stroke="#606061" stroke-width="2" fill="#99A4ED" cx="68.5" cy="72.4427481" rx="5.5" ry="5.45801527"></ellipse>
                <ellipse id="Oval-5-Copy-4" stroke="#606061" stroke-width="2" fill="#99A4ED" cx="91.5" cy="72.4427481" rx="5.5" ry="5.45801527"></ellipse>
                <ellipse id="Oval-5-Copy-5" stroke="#606061" stroke-width="2" fill="#99A4ED" cx="114.5" cy="72.4427481" rx="5.5" ry="5.45801527"></ellipse>
                <path d="M54.4971352,44.2615167 L100.454953,44.2615167" id="Path-37" stroke="#606061" stroke-width="2"></path>
                <path d="M94.7326711,100.257406 C118.335024,100.257406 130.136201,100.257406 130.136201,100.257406 C130.681021,100.198031 130.953431,100.168344 130.953431,100.168344 C131.644983,99.8312126 131.990759,99.6626468 131.990759,99.6626468 C132.593418,99.1148079 132.894748,98.8408884 132.894748,98.8408884 C133.192448,98.2430475 133.341297,97.944127 133.341297,97.944127 C133.634596,97.4336258 133.781245,97.1783753 133.781245,97.1783753 C133.995774,96.4955964 134.103038,96.1542069 134.103038,96.1542069 L134.26674,95.0245758 L134.26674,77.9962621" id="Path-38" stroke="#606061" stroke-width="2"></path>
            </g>
        </g>
    </g>
</svg>