<?xml version="1.0" encoding="UTF-8"?>
<svg width="109px" height="133px" viewBox="0 0 109 133" version="1.1" xmlns="http://www.w3.org/2000/svg" xmlns:xlink="http://www.w3.org/1999/xlink">
    <!-- Generator: Sketch 49 (51002) - http://www.bohemiancoding.com/sketch -->
    <title>Group 18</title>
    <desc>Created with Sketch.</desc>
    <defs></defs>
    <g id="Page-1" stroke="none" stroke-width="1" fill="none" fill-rule="evenodd">
        <g id="Artboard-3" transform="translate(-174.000000, -2941.000000)">
            <g id="Group-18" transform="translate(176.000000, 2942.000000)">
                <path d="M15.3658864,60.9984105 C15.2950367,43.4362295 15.2596119,34.655139 15.2596119,34.655139 C15.3473639,33.3389033 15.3912399,32.6807854 15.3912399,32.6807854 L15.5146594,31.0923721 L15.6405757,29.5901107 C15.8529165,28.5516614 15.9590869,28.0324367 15.9590869,28.0324367 C16.2940689,26.8373584 16.4615598,26.2398192 16.4615598,26.2398192 L17.0859998,24.6765939 C17.4624058,23.7606964 17.6506087,23.3027477 17.6506087,23.3027477 C18.0819419,22.4519914 18.2976085,22.0266133 18.2976085,22.0266133 C18.6812546,21.1756674 18.8730777,20.7501945 18.8730777,20.7501945 C19.4136611,19.8103241 19.6839528,19.3403888 19.6839528,19.3403888 C20.245839,18.4027936 20.5267821,17.933996 20.5267821,17.933996 C21.073815,16.9884374 21.3473314,16.5156581 21.3473314,16.5156581 C21.9870022,15.5905768 22.3068377,15.1280362 22.3068377,15.1280362 C22.932046,14.2522521 23.2446502,13.8143601 23.2446502,13.8143601 C23.9662098,12.9243556 24.3269896,12.4793534 24.3269896,12.4793534 C25.1710893,11.4374756 25.5931391,10.9165367 25.5931391,10.9165367 L26.945201,9.4891726 C27.9163244,8.68216518 28.4018861,8.27866146 28.4018861,8.27866146 C29.592694,7.57446963 30.188098,7.22237372 30.188098,7.22237372 C31.2815774,6.56747911 31.8283171,6.24003181 31.8283171,6.24003181 C33.0138482,5.57072725 33.6066137,5.23607496 33.6066137,5.23607496 C34.8886915,4.62877113 35.5297303,4.32511922 35.5297303,4.32511922 C36.7287467,3.76806063 37.3282548,3.48953134 37.3282548,3.48953134 C38.4414736,3.05268213 38.9980829,2.83425752 38.9980829,2.83425752 C40.5258271,2.32573774 41.2896992,2.07147784 41.2896992,2.07147784 C42.7283234,1.69435411 43.4476354,1.50579224 43.4476354,1.50579224 C44.8950543,1.22555651 45.6187638,1.08543864 45.6187638,1.08543864 C46.9696359,0.870995735 47.645072,0.763774281 47.645072,0.763774281 C49.1886467,0.640720836 49.9604341,0.579194113 49.9604341,0.579194113 C51.0111125,0.579194113 51.5364516,0.579194113 51.5364516,0.579194113 C53.1374853,0.579194113 53.9380022,0.579194113 53.9380022,0.579194113 C55.1290055,0.618063075 55.7245072,0.637497556 55.7245072,0.637497556 C57.1527731,0.745003417 57.866906,0.798756347 57.866906,0.798756347 C59.3057256,1.0514994 60.0251354,1.17787093 60.0251354,1.17787093 C61.4678637,1.54892731 62.1892279,1.7344555 62.1892279,1.7344555 C63.7372977,2.25586841 64.5113326,2.51657486 64.5113326,2.51657486 C66.0730832,3.25963565 66.8539584,3.63116604 66.8539584,3.63116604 C68.1637885,4.3770709 68.8187035,4.75002333 68.8187035,4.75002333 C70.3009105,5.56456509 71.0420139,5.97183597 71.0420139,5.97183597 C72.7085196,7.04992825 73.5417724,7.58897439 73.5417724,7.58897439 C74.858052,8.62099273 75.5161917,9.13700191 75.5161917,9.13700191 C76.8303214,10.2700795 77.4873863,10.8366184 77.4873863,10.8366184 C78.5447095,11.8354559 79.0733712,12.3348746 79.0733712,12.3348746 C80.0167537,13.3771316 80.488445,13.8982601 80.488445,13.8982601 C81.3088966,14.999105 81.7191224,15.5495274 81.7191224,15.5495274 C82.5448508,16.932504 82.957715,17.6239923 82.957715,17.6239923 C83.5631173,18.7180412 83.8658185,19.2650657 83.8658185,19.2650657 L84.8921491,21.2322213 L85.8976028,23.2532666 C86.593103,24.7979722 86.9408531,25.570325 86.9408531,25.570325 C87.3581147,27.2526874 87.5667455,28.0938687 87.5667455,28.0938687 C87.8493498,29.8625012 87.990652,30.7468175 87.990652,30.7468175 C88.0813355,32.8262122 88.1266773,33.8659095 88.1266773,33.8659095 L88.1419215,40.2807103 L88.1419215,59.0635199 L15.3658864,60.9984105 Z" id="Path-47" stroke="#606061" stroke-width="3"></path>
                <ellipse id="Oval-6-Copy" stroke="#606061" stroke-width="2" fill="#FFFFFF" cx="85" cy="62.5746269" rx="6" ry="5.3358209"></ellipse>
                <path d="M83.2851725,41.7564984 C85.2641846,41.7574464 86.2536907,41.7579204 86.2536907,41.7579204 C87.6672987,41.8019087 88.3741027,41.8239029 88.3741027,41.8239029 C89.5903176,41.9566261 90.1984251,42.0229878 90.1984251,42.0229878 C91.2031753,42.2632169 91.7055505,42.3833315 91.7055505,42.3833315 C92.7235906,42.8605665 93.2326106,43.099184 93.2326106,43.099184 C94.1609443,43.6791848 94.6251112,43.9691851 94.6251112,43.9691851 C95.4555302,44.5726969 95.8707397,44.8744527 95.8707397,44.8744527 C96.785979,45.6946826 97.2435987,46.1047976 97.2435987,46.1047976 C98.1774047,47.1910429 98.6443077,47.7341655 98.6443077,47.7341655 C99.4033916,48.7062688 99.7829335,49.1923204 99.7829335,49.1923204 C100.469705,50.3295694 100.813091,50.8981938 100.813091,50.8981938 C101.399993,52.0136382 101.693444,52.5713604 101.693444,52.5713604 C102.098784,53.9215355 102.301454,54.596623 102.301454,54.596623 C102.47559,56.0141076 102.562658,56.72285 102.562658,56.72285 C102.600378,58.2620609 102.619237,59.0316663 102.619237,59.0316663 C102.554156,60.3135836 102.521616,60.9545423 102.521616,60.9545423 C102.345916,62.2540929 102.258067,62.9038681 102.258067,62.9038681 C101.805291,64.1571913 101.578903,64.7838528 101.578903,64.7838528 C101.076161,65.6598265 100.824789,66.0978134 100.824789,66.0978134 C100.224699,67.0651584 99.9246545,67.548831 99.9246545,67.548831 C99.1589071,68.4582112 98.7760334,68.9129013 98.7760334,68.9129013 C98.0149393,69.6395387 97.6343923,70.0028574 97.6343923,70.0028574 C96.792703,70.8663714 96.3718584,71.2981284 96.3718584,71.2981284 C95.5206764,72.1105393 95.0950854,72.5167448 95.0950854,72.5167448 C94.0114245,73.2422988 93.469594,73.6050757 93.469594,73.6050757 C93.4535866,75.435393 93.4455829,76.3505517 93.4455829,76.3505517 C93.3333453,77.7279846 93.2772265,78.4167011 93.2772265,78.4167011 C93.0051014,79.7446562 92.8690388,80.4086338 92.8690388,80.4086338 C92.4599205,81.6076578 92.2553614,82.2071698 92.2553614,82.2071698 C91.7209762,83.390303 91.4537836,83.9818697 91.4537836,83.9818697 C90.949924,85.0709229 90.6979942,85.6154495 90.6979942,85.6154495 C90.0305246,86.4457375 89.6967898,86.8608815 89.6967898,86.8608815 C88.9490972,87.7428142 88.575251,88.1837805 88.575251,88.1837805 C87.7953575,88.9671188 87.4054108,89.3587879 87.4054108,89.3587879 C86.5237032,90.1529607 86.0828493,90.5500471 86.0828493,90.5500471 C84.9885789,91.4038099 84.4414436,91.8306914 84.4414436,91.8306914 C83.4489874,92.4334537 82.9527592,92.7348349 82.9527592,92.7348349 C82.0135368,93.232502 81.5439255,93.4813356 81.5439255,93.4813356 C80.3867424,93.8899789 79.8081508,94.0943005 79.8081508,94.0943005 C78.5733506,94.458161 77.9559505,94.6400912 77.9559505,94.6400912 L75.9789486,95.163671 C47.966992,95.163671 33.9610137,95.163671 33.9610137,95.163671 C32.5999251,95.1375889 31.9193808,95.1245479 31.9193808,95.1245479 C30.8128113,95.0451935 30.2595265,95.0055163 30.2595265,95.0055163 C29.1390232,94.6024859 28.5787715,94.4009708 28.5787715,94.4009708 C27.5626421,93.9165834 27.0545774,93.6743897 27.0545774,93.6743897 C26.0119998,93.0923738 25.490711,92.8013659 25.490711,92.8013659 C24.4921277,92.0780391 23.9928361,91.7163757 23.9928361,91.7163757 C23.1555228,91.0282202 22.7368661,90.6841424 22.7368661,90.6841424 C21.9320648,89.9886022 21.5296641,89.6408321 21.5296641,89.6408321 C20.7175089,88.7863326 20.3114313,88.3590829 20.3114313,88.3590829 C19.5686866,87.3120802 19.1973143,86.7885789 19.1973143,86.7885789 C18.5428165,85.6915103 18.2155676,85.142976 18.2155676,85.142976 C17.6617023,84.2511775 17.3847696,83.8052782 17.3847696,83.8052782 C16.8805754,82.682676 16.6284783,82.1213749 16.6284783,82.1213749 C16.2667176,81.0380745 16.0858373,80.4964242 16.0858373,80.4964242 C15.8098722,79.2449024 15.6718897,78.6191415 15.6718897,78.6191415 C15.5045561,77.5071783 15.4208892,76.9511967 15.4208892,76.9511967 C15.37883,75.7389765 15.3578004,75.1328665 15.3578004,75.1328665 C15.3695409,74.0862392 15.3754111,73.5629256 15.3754111,73.5629256 C15.5266178,72.4906396 15.6022211,71.9544967 15.6022211,71.9544967 C15.9119883,70.91588 16.0668719,70.3965716 16.0668719,70.3965716 C16.472467,69.0110096 16.6752645,68.3182285 16.6752645,68.3182285 L18.0378451,65.3336041 C61.5360634,49.6155336 83.2851725,41.7564984 83.2851725,41.7564984 Z" id="Path-48" stroke="#606061" stroke-width="2"></path>
                <ellipse id="Oval-6" stroke="#606061" stroke-width="2" fill="#FFFFFF" cx="20" cy="62.5746269" rx="6" ry="5.3358209"></ellipse>
                <path d="M66.574263,90.7345241 C76.2918458,95.9255652 81.1506373,98.5210858 81.1506373,98.5210858 C91.6764916,103.615123 96.9394187,106.162142 96.9394187,106.162142 C97.7713263,106.632474 98.18728,106.86764 98.18728,106.86764 C98.9342042,107.344671 99.3076663,107.583186 99.3076663,107.583186 C99.9445104,108.041408 100.262932,108.27052 100.262932,108.27052 C100.902698,108.703879 101.222581,108.920559 101.222581,108.920559 C101.75532,109.434304 102.02169,109.691177 102.02169,109.691177 C102.50729,110.181734 102.75009,110.427012 102.75009,110.427012 C103.145529,110.956474 103.343248,111.221204 103.343248,111.221204 C103.751832,111.784031 103.956124,112.065444 103.956124,112.065444 C104.310265,112.784533 104.487336,113.144077 104.487336,113.144077 C104.71055,113.774535 104.822157,114.089765 104.822157,114.089765 C104.953483,114.99629 105.019146,115.449553 105.019146,115.449553 C105.095764,116.367673 105.134073,116.826733 105.134073,116.826733 C105.158373,117.772678 105.170523,118.245651 105.170523,118.245651 L105.439017,129.635449 C35.3515002,129.635449 0.307741675,129.635449 0.307741675,129.635449 C0.283764519,124.322905 0.27177594,121.666634 0.27177594,121.666634 C0.267985762,118.411387 0.266090673,116.783764 0.266090673,116.783764 C0.311817341,116.046695 0.334680674,115.678161 0.334680674,115.678161 C0.474550482,115.129452 0.544485385,114.855097 0.544485385,114.855097 C0.80661901,114.224189 0.937685822,113.908734 0.937685822,113.908734 C1.21595827,113.352909 1.35509449,113.074996 1.35509449,113.074996 C1.58886291,112.58678 1.70574712,112.342672 1.70574712,112.342672 C1.95003023,111.898936 2.07217178,111.677069 2.07217178,111.677069 C2.38687885,111.216727 2.54423238,110.986556 2.54423238,110.986556 C2.92227211,110.501662 3.11129197,110.259214 3.11129197,110.259214 C3.46316724,109.812632 3.63910487,109.589341 3.63910487,109.589341 C4.03316115,109.124966 4.23018929,108.892779 4.23018929,108.892779 C4.68012014,108.458177 4.90508557,108.240876 4.90508557,108.240876 L5.87066407,107.549118 L37.0530726,92.6418102 C56.7338662,91.3702862 66.574263,90.7345241 66.574263,90.7345241 Z" id="Path-49" stroke="#606061" stroke-width="3" fill="#99A4ED"></path>
                <path d="M37.5036255,91.7134924 C37.5036255,104.945808 37.5036255,111.561966 37.5036255,111.561966 C37.5275155,112.171423 37.5394606,112.476152 37.5394606,112.476152 C37.6235098,113.076033 37.6655344,113.375974 37.6655344,113.375974 C37.8211218,113.837984 37.8989154,114.068989 37.8989154,114.068989 C38.1228329,114.510925 38.2347916,114.731893 38.2347916,114.731893 C38.4486039,115.098358 38.55551,115.28159 38.55551,115.28159 C38.7922594,115.58192 38.9106341,115.732084 38.9106341,115.732084 L39.3588699,116.232063 L52.9748467,129.641165 C61.0673127,121.780617 65.1135458,117.850343 65.1135458,117.850343 C65.5461427,117.319553 65.7624412,117.054158 65.7624412,117.054158 C66.1457955,116.486177 66.3374727,116.202186 66.3374727,116.202186 C66.6491286,115.699095 66.8049565,115.447549 66.8049565,115.447549 C67.0420267,115.02771 67.1605618,114.81779 67.1605618,114.81779 C67.3628253,114.38239 67.4639571,114.16469 67.4639571,114.16469 C67.6426419,113.746562 67.7319843,113.537499 67.7319843,113.537499 C67.8603038,113.039854 67.9244635,112.791031 67.9244635,112.791031 C68.0686625,112.259463 68.140762,111.993679 68.140762,111.993679 C68.2374827,111.492922 68.2858431,111.242544 68.2858431,111.242544 L68.4200974,110.373766 L68.4200974,88.9169166 L37.5036255,91.7134924 Z" id="Path-50" stroke="#606061"></path>
                <path d="M42.3148689,92.4172365 C42.3148689,104.232022 42.3148689,110.139415 42.3148689,110.139415 C42.3524023,110.661802 42.371169,110.922996 42.371169,110.922996 C42.4199304,111.34797 42.4443111,111.560457 42.4443111,111.560457 C42.5362199,111.943261 42.5821743,112.134663 42.5821743,112.134663 C42.7239673,112.479964 42.7948638,112.652615 42.7948638,112.652615 C42.9389024,113.029506 43.0109217,113.217951 43.0109217,113.217951 C43.1461383,113.517503 43.2137466,113.667278 43.2137466,113.667278 L49.5869726,120.04913 C50.7890051,121.282816 51.3900213,121.899659 51.3900213,121.899659 C51.6588505,122.178826 51.7932652,122.318409 51.7932652,122.318409 C52.057122,122.524439 52.1890505,122.627453 52.1890505,122.627453 C52.526691,122.764547 52.6955113,122.833094 52.6955113,122.833094 C53.0438986,122.82329 53.2180922,122.818388 53.2180922,122.818388 C53.5579784,122.769371 53.7279214,122.744862 53.7279214,122.744862 C54.0517677,122.387734 54.2136908,122.20917 54.2136908,122.20917 C60.2015574,115.990944 63.1954908,112.881831 63.1954908,112.881831 C63.3704864,112.530616 63.4579843,112.355009 63.4579843,112.355009 C63.5325699,111.90856 63.5698628,111.685335 63.5698628,111.685335 C63.6194262,111.241688 63.6442079,111.019864 63.6442079,111.019864 L63.7257709,110.317746 L63.7257709,90.8507757 L42.3148689,92.4172365 Z" id="Path-51" stroke="#606061" stroke-width="2" fill="#FFFFFF"></path>
                <path d="M21.8172085,42.1275196 C22.9252753,41.3648908 23.4793086,40.9835764 23.4793086,40.9835764 C24.4215344,40.0706072 24.8926472,39.6141226 24.8926472,39.6141226 C25.8142885,38.590753 26.2751091,38.0790683 26.2751091,38.0790683 C27.0806228,37.0609738 27.4833796,36.5519266 27.4833796,36.5519266 C28.1925734,35.7169536 28.5471703,35.299467 28.5471703,35.299467 C29.2785021,34.417018 29.644168,33.9757936 29.644168,33.9757936 C29.9898321,33.2580031 30.1626641,32.8991078 30.1626641,32.8991078 C30.4438559,32.116509 30.5844518,31.7252096 30.5844518,31.7252096 C30.7553419,30.7214333 30.8407869,30.2195451 30.8407869,30.2195451 C31.6777599,31.5368131 32.0962464,32.1954471 32.0962464,32.1954471 C32.9176839,33.0323041 33.3284027,33.4507326 33.3284027,33.4507326 C34.0985732,34.0927878 34.4836584,34.4138153 34.4836584,34.4138153 C35.4165629,34.9643097 35.8830151,35.239557 35.8830151,35.239557 C37.050505,35.8503382 37.6342499,36.1557289 37.6342499,36.1557289 C38.7706689,36.7457866 39.3388784,37.0408154 39.3388784,37.0408154 C40.533167,37.6105263 41.1303113,37.8953817 41.1303113,37.8953817 C42.3315908,38.3490404 42.9322306,38.5758697 42.9322306,38.5758697 C44.0872922,39.0216157 44.6648229,39.2444887 44.6648229,39.2444887 C46.2603148,39.7591878 47.0580607,40.0165374 47.0580607,40.0165374 C48.3793517,40.4057644 49.0399972,40.600378 49.0399972,40.600378 C50.3946894,40.8290913 51.0720355,40.9434479 51.0720355,40.9434479 C52.6115997,41.1540751 53.3813818,41.2593888 53.3813818,41.2593888 C55.1963121,41.3652676 56.1037772,41.418207 56.1037772,41.418207 C57.8837527,41.5282305 58.7737404,41.5832423 58.7737404,41.5832423 C60.7463556,41.6062266 61.7326632,41.6177188 61.7326632,41.6177188 C64.1200752,41.5725037 65.3137812,41.5498961 65.3137812,41.5498961 C67.4899109,41.6184724 68.5779758,41.6527606 68.5779758,41.6527606 C70.5634077,41.6983525 71.5561237,41.7211485 71.5561237,41.7211485 C73.612242,41.7211485 74.6403012,41.7211485 74.6403012,41.7211485 C76.4851372,41.7211485 77.4075552,41.7211485 77.4075552,41.7211485 C78.8142912,41.6246895 79.5176592,41.57646 79.5176592,41.57646 C81.1197536,41.5990676 81.9208009,41.6103714 81.9208009,41.6103714 C83.0315863,41.563649 83.5869791,41.5402879 83.5869791,41.5402879 C83.768744,57.0313745 83.8596264,64.7769178 83.8596264,64.7769178 C83.8596264,66.4834128 83.8596264,67.3366604 83.8596264,67.3366604 C83.7862214,68.9033653 83.7495188,69.6867177 83.7495188,69.6867177 C83.5502766,71.4075309 83.4506554,72.2679375 83.4506554,72.2679375 C82.8839995,73.8527284 82.6006715,74.6451239 82.6006715,74.6451239 C81.9769227,76.3229827 81.6650483,77.1619121 81.6650483,77.1619121 C81.0611073,78.6675765 80.7591368,79.4204088 80.7591368,79.4204088 C80.0041133,80.8544826 79.6266016,81.5715194 79.6266016,81.5715194 C78.6315553,83.0383742 78.1340322,83.7718016 78.1340322,83.7718016 C77.1133524,85.1037645 76.6030125,85.769746 76.6030125,85.769746 C75.5007715,86.9570204 74.949651,87.5506576 74.949651,87.5506576 C73.549906,88.8886492 72.8500334,89.557645 72.8500334,89.557645 C71.4456278,90.6480837 70.7434249,91.193303 70.7434249,91.193303 C69.2015304,92.064825 68.4305831,92.500586 68.4305831,92.500586 C66.8148951,93.2315642 66.0070512,93.5970533 66.0070512,93.5970533 C64.4472909,94.4259977 63.6674107,94.8404699 63.6674107,94.8404699 C61.9041359,95.4520048 61.0224984,95.7577722 61.0224984,95.7577722 C59.3613692,96.1127112 58.5308046,96.2901806 58.5308046,96.2901806 C56.963665,96.5445158 56.1800952,96.6716834 56.1800952,96.6716834 C54.6774277,96.852544 53.9260939,96.9429743 53.9260939,96.9429743 C52.4587696,96.9704802 51.7251075,96.9842331 51.7251075,96.9842331 C49.9874661,96.8678041 49.1186455,96.8095896 49.1186455,96.8095896 C47.3953744,96.4655777 46.5337389,96.2935717 46.5337389,96.2935717 C44.8644536,95.7317735 44.0298109,95.4508744 44.0298109,95.4508744 C41.998161,94.7048245 40.982336,94.3317995 40.982336,94.3317995 C39.2050793,93.5122749 38.3164509,93.1025127 38.3164509,93.1025127 C36.69183,91.9977559 35.8795196,91.4453775 35.8795196,91.4453775 C34.2851929,90.1808605 33.4880295,89.548602 33.4880295,89.548602 C32.0187633,88.275042 31.2841302,87.638262 31.2841302,87.638262 C30.1053771,86.4377998 29.5160005,85.8375687 29.5160005,85.8375687 C28.4075453,84.652555 27.8533178,84.0600482 27.8533178,84.0600482 C26.8470083,82.4778948 26.3438535,81.6868181 26.3438535,81.6868181 C25.4793051,80.0247846 25.0470309,79.1937678 25.0470309,79.1937678 C24.3708499,77.7110878 24.0327595,76.9697477 24.0327595,76.9697477 C23.450568,75.446374 23.1594723,74.6846872 23.1594723,74.6846872 C22.7905051,72.8704293 22.6060215,71.9633004 22.6060215,71.9633004 C22.4832914,69.7097021 22.4219263,68.5829029 22.4219263,68.5829029 C22.4219263,66.8168746 22.4219263,65.9338604 22.4219263,65.9338604 L22.3135665,62.9321397 C21.9826612,49.062393 21.8172085,42.1275196 21.8172085,42.1275196 Z" id="Path-41" stroke="#606061" stroke-width="2" fill="#FFFFFF"></path>
                <path d="M26.6487396,22.764343 C27.1774945,21.5601239 27.4418719,20.9580143 27.4418719,20.9580143 C28.0232019,19.9913357 28.3138668,19.5079964 28.3138668,19.5079964 C29.0459119,18.6909344 29.4119345,18.2824034 29.4119345,18.2824034 C30.2891869,17.3630872 30.7278131,16.9034291 30.7278131,16.9034291 C31.5134347,16.155832 31.9062454,15.7820334 31.9062454,15.7820334 C32.8185479,15.0902996 33.2746991,14.7444327 33.2746991,14.7444327 C34.2550988,13.968661 34.7452986,13.5807751 34.7452986,13.5807751 C35.774518,12.935675 36.2891276,12.613125 36.2891276,12.613125 C37.2344772,12.0620211 37.7071521,11.7864691 37.7071521,11.7864691 C38.8638033,11.2341507 39.442129,10.9579915 39.442129,10.9579915 C40.6924139,10.3583108 41.3175564,10.0584704 41.3175564,10.0584704 C42.3698087,9.67884262 42.8959348,9.48902873 42.8959348,9.48902873 C43.8951112,9.22404221 44.3946995,9.09154895 44.3946995,9.09154895 C45.5318229,8.82024745 46.1003846,8.6845967 46.1003846,8.6845967 C47.3058556,8.47207315 47.9085911,8.36581137 47.9085911,8.36581137 C49.1373453,8.25627066 49.7517224,8.2015003 49.7517224,8.2015003 C51.0305481,8.17988362 51.6699609,8.16907528 51.6699609,8.16907528 C52.9743231,8.22226689 53.6265042,8.24886269 53.6265042,8.24886269 C54.9709235,8.38754949 55.6431332,8.45689289 55.6431332,8.45689289 C56.7594769,8.68666122 57.3176488,8.80154538 57.3176488,8.80154538 C58.2740142,9.06240287 58.7521968,9.19283161 58.7521968,9.19283161 C59.7556294,9.46437599 60.2573456,9.60014819 60.2573456,9.60014819 C61.1330959,9.89452367 61.570971,10.0417114 61.570971,10.0417114 C62.3641033,10.2695367 62.7606695,10.3834493 62.7606695,10.3834493 L64.4719876,11.2104695" id="Path-42" stroke="#606061" stroke-width="2"></path>
                <ellipse id="Oval-6-Copy-2" fill="#606061" cx="65" cy="58.6940299" rx="3" ry="2.91044776"></ellipse>
                <ellipse id="Oval-6-Copy-3" fill="#606061" cx="41" cy="58.6940299" rx="3" ry="2.91044776"></ellipse>
                <path d="M33.4913835,51.9967761 C33.94428,51.5134368 34.1707283,51.2717672 34.1707283,51.2717672 C34.7405418,50.7269782 35.0254485,50.4545837 35.0254485,50.4545837 C35.7159343,50.0997301 36.0611772,49.9223033 36.0611772,49.9223033 C36.6405043,49.5973244 36.9301678,49.434835 36.9301678,49.434835 C37.7002672,49.1795638 38.0853169,49.0519283 38.0853169,49.0519283 C38.8601732,48.9608467 39.2476013,48.915306 39.2476013,48.915306 L40.6795205,48.9531959" id="Path-43" stroke="#606061" stroke-width="2"></path>
                <path d="M64.8381354,48.8755944 C65.7662103,48.9032832 66.2302478,48.9171276 66.2302478,48.9171276 C67.019124,49.0218106 67.4135621,49.0741521 67.4135621,49.0741521 C68.247002,49.2891045 68.6637219,49.3965807 68.6637219,49.3965807 C69.236039,49.676869 69.5221975,49.8170131 69.5221975,49.8170131 C70.1949079,50.250804 70.5312631,50.4676995 70.5312631,50.4676995 C71.035483,50.9092627 71.2875929,51.1300443 71.2875929,51.1300443 L71.8362512,51.7067725" id="Path-44" stroke="#606061" stroke-width="2"></path>
                <path d="M49.9511321,69.4476318 C50.1949802,70.0135517 50.3169043,70.2965116 50.3169043,70.2965116 C50.605316,70.6819686 50.7495219,70.8746971 50.7495219,70.8746971 C51.349879,71.1149095 51.6500575,71.2350157 51.6500575,71.2350157 C52.3240197,71.3416418 52.6610008,71.3949548 52.6610008,71.3949548 C53.3422233,71.4386739 53.6828346,71.4605335 53.6828346,71.4605335 C54.3182417,71.3352053 54.6359453,71.2725412 54.6359453,71.2725412 C55.0750722,70.9150159 55.2946357,70.7362532 55.2946357,70.7362532 C55.7072247,70.1992366 55.9135192,69.9307282 55.9135192,69.9307282 L56.1370628,69.4964417" id="Path-45" stroke="#606061"></path>
                <path d="M43.6613961,80.3458566 C56.0722734,80.3458566 62.277712,80.3458566 62.277712,80.3458566 C61.4488947,81.3276863 61.034486,81.8186012 61.034486,81.8186012 C60.3282748,82.4995446 59.9751692,82.8400163 59.9751692,82.8400163 C59.3017184,83.3087596 58.9649929,83.5431312 58.9649929,83.5431312 C58.2552507,84.0703009 57.9003795,84.3338857 57.9003795,84.3338857 C57.0083955,84.8317471 56.5624036,85.0806777 56.5624036,85.0806777 C55.7002374,85.4390389 55.2691543,85.6182195 55.2691543,85.6182195 C54.1957132,85.7449686 53.6589927,85.8083432 53.6589927,85.8083432 C52.6557805,85.8353678 52.1541743,85.8488801 52.1541743,85.8488801 C51.279061,85.8488801 50.8415043,85.8488801 50.8415043,85.8488801 C50.1749193,85.7386883 49.8416269,85.6835924 49.8416269,85.6835924 C49.1252149,85.3735709 48.7670088,85.2185602 48.7670088,85.2185602 C48.1170984,84.863244 47.7921431,84.685586 47.7921431,84.685586 C47.1220271,84.1321529 46.7869692,83.8554364 46.7869692,83.8554364 C46.2151343,83.4135274 45.9292168,83.1925729 45.9292168,83.1925729 C45.3783721,82.7327744 45.1029497,82.5028751 45.1029497,82.5028751 L44.2984574,81.668729 L43.6613961,80.3458566 Z" id="Path-46" stroke="#606061" stroke-width="2"></path>
                <path d="M13.4228926,129.498339 L13.4228926,120.474714" id="Path-52" stroke="#606061" stroke-width="2"></path>
                <path d="M92.6298909,129.52235 L92.6298909,120.238907" id="Path-53" stroke="#606061" stroke-width="2"></path>
            </g>
        </g>
    </g>
</svg>