<?xml version="1.0" encoding="UTF-8"?>
<svg width="294px" height="221px" viewBox="0 0 294 221" version="1.1" xmlns="http://www.w3.org/2000/svg" xmlns:xlink="http://www.w3.org/1999/xlink">
    <!-- Generator: Sketch 49.1 (51147) - http://www.bohemiancoding.com/sketch -->
    <title>Group 55</title>
    <desc>Created with Sketch.</desc>
    <defs></defs>
    <g id="Page-1" stroke="none" stroke-width="1" fill="none" fill-rule="evenodd">
        <g id="Group-55" transform="translate(2.000000, 1.000000)" stroke="#9098E7">
            <polygon id="Path-2" stroke-width="2" fill="#C9CEFB" points="27.1312351 111.864407 54.2503742 195.18016 -9.09494702e-13 195.18016"></polygon>
            <path d="M26.1016949,162.824859 L26.1016949,212.867049" id="Path-3" stroke-width="2"></path>
            <path d="M18.6440678,172.768362 L26.1870586,180.684087" id="Path-4" stroke-width="2"></path>
            <path d="M34.4231175,169.039548 L26.1016949,178.10223" id="Path-5" stroke-width="2"></path>
            <path d="M35.5136143,180.225989 L25.986116,190.146906" id="Path-6" stroke-width="2"></path>
            <polygon id="Path-10" stroke-width="2" fill="#A8B0F3" points="108.118355 44.7457627 108.118355 53.7482048 80.0778927 96.2125703 53.4463277 96.2125703 91.0257955 53.7482048 91.0257955 44.7457627"></polygon>
            <polygon id="Path-12" stroke-width="2" fill="#EFF1FC" points="125.095829 44.7457627 125.095829 53.720282 106.195974 96.4502794 79.5480226 96.4502794 107.878226 53.720282 107.878226 44.7457627"></polygon>
            <polygon id="Path-13" stroke-width="2" fill="#A8B0F3" points="142.036255 44.7457627 142.036255 53.9677754 132.106904 96.4156403 105.649718 96.4156403 124.564131 53.9677754 124.564131 44.7457627"></polygon>
            <path d="M158.546455,44.7457627 C158.546455,50.8539446 158.546455,53.9080356 158.546455,53.9080356 L158.364223,96.5140352 L131.751412,96.5140352 L141.902153,53.9080356 L141.902153,44.7457627 L158.546455,44.7457627 Z" id="Path-14" stroke-width="2" fill="#EFF1FC"></path>
            <polygon id="Path-15" stroke-width="2" fill="#A8B0F3" points="174.941191 44.7457627 174.941191 53.7900621 184.405174 96.4362229 157.853107 96.4362229 157.853107 53.7900621 157.853107 44.7457627"></polygon>
            <polygon id="Path-16" stroke-width="2" fill="#EFF1FC" points="191.869925 44.7457627 191.869925 53.7488969 211.25322 96.3533905 184.918525 96.3533905 175.254237 53.7488969 175.254237 44.7457627"></polygon>
            <polygon id="Path-17" stroke-width="2" fill="#A8B0F3" points="208.563766 44.7457627 208.563766 53.7609452 236.987847 96.2469633 210.673735 96.2469633 191.412429 53.7609452 191.412429 44.7457627"></polygon>
            <polygon id="Path-18" stroke-width="2" fill="#EFF1FC" points="225.537682 44.7457627 225.537682 53.8914691 263.302752 96.0873226 236.841048 96.0873226 208.813559 53.8914691 208.813559 44.7457627"></polygon>
            <polygon id="Path-19" stroke-width="2" fill="#C9CEFB" points="269.778039 132.99435 290.467771 196.013834 249.830508 196.013834"></polygon>
            <path d="M269.717514,171.525424 L269.717514,218.602974" id="Path-55" stroke-width="2"></path>
            <path d="M263.502825,180.225989 L269.671212,186.620986" id="Path-56" stroke-width="2"></path>
            <path d="M275.616432,176.497175 L269.717514,183.194698" id="Path-57" stroke-width="2"></path>
            <path d="M275.71811,185.19774 L269.717514,191.755285" id="Path-58" stroke-width="2"></path>
            <polygon id="Path-85" stroke-width="2" fill="#EFF1FC" points="63.3898305 133.527002 63.3898305 209.321058 252.070307 209.321058 252.070307 126.779661 63.3898305 126.779661"></polygon>
            <path d="M97.4040834,14.8018889 C97.1469749,13.1701068 97.0184206,12.3542157 97.0184206,12.3542157 C96.9722419,11.1384453 96.9491525,10.5305601 96.9491525,10.5305601 C96.9961379,9.6243282 97.0196305,9.17121224 97.0196305,9.17121224 C97.31465,8.3069243 97.4621597,7.87478033 97.4621597,7.87478033 C97.8547795,7.0600992 98.0510894,6.65275864 98.0510894,6.65275864 C98.5884966,5.72071504 98.8572003,5.25469324 98.8572003,5.25469324 C99.4157811,4.52853811 99.6950716,4.16546055 99.6950716,4.16546055 C100.467204,3.3765911 100.85327,2.98215638 100.85327,2.98215638 C101.65202,2.38768115 102.051396,2.09044353 102.051396,2.09044353 C102.863858,1.59276209 103.27009,1.34392137 103.27009,1.34392137 C104.194067,1.00312655 104.656056,0.832729132 104.656056,0.832729132 C105.575194,0.54113782 106.034763,0.395342164 106.034763,0.395342164 C106.832505,0.210425681 107.231376,0.11796744 107.231376,0.11796744 C108.247106,0.0393224799 108.754971,0 108.754971,0 C109.628132,0.021173643 110.064712,0.0317604646 110.064712,0.0317604646 C111.138317,0.207400875 111.675119,0.29522108 111.675119,0.29522108 C112.768687,0.71647575 113.315471,0.927103084 113.315471,0.927103084 C114.121078,1.35118091 114.523881,1.56321982 114.523881,1.56321982 C115.42729,2.10506343 115.878994,2.37598523 115.878994,2.37598523 C116.606158,3.07007741 116.969739,3.41712351 116.969739,3.41712351 C117.550301,4.13722902 117.840581,4.49728178 117.840581,4.49728178 C118.332616,5.36237634 118.578634,5.79492362 118.578634,5.79492362 C118.817594,6.5347912 118.937073,6.90472499 118.937073,6.90472499 C119.112109,7.77687743 119.199627,8.21295365 119.199627,8.21295365 C119.353287,9.08107302 119.430117,9.5151327 119.430117,9.5151327 C119.458147,10.1957141 119.472162,10.5360048 119.472162,10.5360048 C120.723423,10.401905 121.349054,10.3348552 121.349054,10.3348552 C122.251858,10.2977509 122.70326,10.2791987 122.70326,10.2791987 C123.607878,10.2628648 124.060188,10.2546978 124.060188,10.2546978 C124.985577,10.3603644 125.448271,10.4131976 125.448271,10.4131976 C126.271422,10.6386465 126.682997,10.751371 126.682997,10.751371 C127.568257,11.2050919 128.010887,11.4319524 128.010887,11.4319524 C128.645088,11.9901299 128.962188,12.2692187 128.962188,12.2692187 C129.470759,12.9368942 129.725045,13.270732 129.725045,13.270732 C130.305404,14.1453043 130.595584,14.5825904 130.595584,14.5825904 C130.973483,15.3047125 131.162432,15.6657735 131.162432,15.6657735 C131.38163,16.6173775 131.491229,17.0931795 131.491229,17.0931795 C131.610406,18.1070946 131.669995,18.6140521 131.669995,18.6140521 C131.654064,19.6906814 131.646099,20.2289961 131.646099,20.2289961 C131.532366,21.0658591 131.4755,21.4842906 131.4755,21.4842906 C131.214762,22.4139144 131.084392,22.8787263 131.084392,22.8787263 C130.696612,23.6165773 130.502722,23.9855028 130.502722,23.9855028 C129.898769,24.7769938 129.596793,25.1727392 129.596793,25.1727392 C128.872452,25.8248874 128.510282,26.1509616 128.510282,26.1509616 C127.721816,26.8281148 127.327583,27.1666915 127.327583,27.1666915 C126.439903,27.6115396 125.996063,27.8339637 125.996063,27.8339637 C125.251155,28.063849 124.8787,28.1787916 124.8787,28.1787916 L123.2813,28.3360815 L100.85327,28.3360815 C98.5538122,19.3132864 97.4040834,14.8018889 97.4040834,14.8018889 Z" id="Path-81" stroke-width="2" fill="#EFF1FC"></path>
            <path d="M55.9805642,17.0740109 C54.5709471,17.0974732 53.8661385,17.1092044 53.8661385,17.1092044 C52.6407789,17.1999254 52.0280991,17.2452859 52.0280991,17.2452859 C50.9137946,17.5108796 50.3566423,17.6436764 50.3566423,17.6436764 C49.3036527,18.170484 48.7771579,18.4338879 48.7771579,18.4338879 C47.7157218,19.1455787 47.1850038,19.5014241 47.1850038,19.5014241 C46.2618391,20.4552463 45.8002568,20.9321574 45.8002568,20.9321574 C45.1276698,21.9016211 44.7913763,22.3863529 44.7913763,22.3863529 C44.2739536,23.236628 44.0152423,23.6617655 44.0152423,23.6617655 C43.6736307,24.5746067 43.5028249,25.0310274 43.5028249,25.0310274 C43.5441186,25.9942345 43.5647654,26.475838 43.5647654,26.475838 C43.7975118,27.5532285 43.913885,28.0919237 43.913885,28.0919237 C44.345592,28.9246802 44.5614454,29.3410584 44.5614454,29.3410584 C45.1170335,30.2076007 45.3948276,30.6408718 45.3948276,30.6408718 C45.9566723,31.3841586 46.2375947,31.755802 46.2375947,31.755802 C47.0472017,32.645181 47.4520052,33.0898704 47.4520052,33.0898704 C48.2625507,33.4640165 48.6678234,33.6510895 48.6678234,33.6510895 C49.5878598,34.144737 50.047878,34.3915608 50.047878,34.3915608 C50.8405921,34.7297313 51.2369492,34.8988165 51.2369492,34.8988165 L53.7999747,34.9344793 C82.2500901,34.9344793 96.4751477,34.9344793 96.4751477,34.9344793 C97.6532698,34.6676343 98.2423309,34.5342118 98.2423309,34.5342118 C99.1889579,34.0017732 99.6622714,33.7355539 99.6622714,33.7355539 C100.500972,33.2347112 100.920322,32.9842899 100.920322,32.9842899 C101.672368,32.444969 102.048391,32.1753086 102.048391,32.1753086 C102.651842,31.4977163 102.953568,31.1589202 102.953568,31.1589202 C103.791955,30.4168847 104.211149,30.045867 104.211149,30.045867 C104.721377,29.254717 104.97649,28.8591421 104.97649,28.8591421 C105.345006,27.9703888 105.529263,27.5260122 105.529263,27.5260122 C105.777338,26.5734413 105.901376,26.0971559 105.901376,26.0971559 C106.064674,25.1592882 106.146322,24.6903543 106.146322,24.6903543 C106.146322,23.6971154 106.146322,23.200496 106.146322,23.200496 C106.125363,22.1121564 106.114883,21.5679866 106.114883,21.5679866 C105.864931,20.5734964 105.739955,20.0762513 105.739955,20.0762513 C105.360803,19.2907324 105.171228,18.8979729 105.171228,18.8979729 C104.748593,18.160317 104.537276,17.7914891 104.537276,17.7914891 C103.956348,17.0510178 103.665884,16.6807821 103.665884,16.6807821 C103.030211,16.1208144 102.712375,15.8408305 102.712375,15.8408305 C101.812673,15.250831 101.362821,14.9558312 101.362821,14.9558312 C100.673654,14.4296492 100.329071,14.1665582 100.329071,14.1665582 C99.4947503,13.727969 99.07759,13.5086744 99.07759,13.5086744 C98.2295048,13.1755092 97.8054622,13.0089266 97.8054622,13.0089266 C96.775622,12.7987041 96.260702,12.6935928 96.260702,12.6935928 C95.1733009,12.5102738 94.6296004,12.4186142 94.6296004,12.4186142 C93.5803648,12.3810745 93.0557469,12.3623046 93.0557469,12.3623046 C91.9930596,12.4833703 91.4617159,12.5439031 91.4617159,12.5439031 C89.8518868,12.6665329 89.0469723,12.7278478 89.0469723,12.7278478 C88.86772,11.5334585 88.7780939,10.9362639 88.7780939,10.9362639 C88.5134388,9.98244173 88.3811112,9.50553065 88.3811112,9.50553065 C87.9459631,8.65275296 87.728389,8.22636412 87.728389,8.22636412 C87.2403724,7.57598817 86.9963641,7.2508002 86.9963641,7.2508002 C86.4939573,6.55130977 86.2427539,6.20156455 86.2427539,6.20156455 C85.4456602,5.4435747 85.0471133,5.06457977 85.0471133,5.06457977 C84.5009101,4.39637245 84.2278085,4.06226879 84.2278085,4.06226879 C83.4457307,3.4897878 83.0546918,3.20354731 83.0546918,3.20354731 C81.9838708,2.43085439 81.4484603,2.04450793 81.4484603,2.04450793 C80.4865045,1.4585752 80.0055266,1.16560883 80.0055266,1.16560883 C78.9309517,0.809294163 78.3936642,0.631136828 78.3936642,0.631136828 C77.4038664,0.431237729 76.9089676,0.331288179 76.9089676,0.331288179 C75.6782899,0.168303154 75.062951,0.0868106418 75.062951,0.0868106418 C73.8250782,0.0289368806 73.2061418,0 73.2061418,0 C71.9701459,0.0112619211 71.352148,0.0168928816 71.352148,0.0168928816 C70.1427428,0.0760179674 69.5380402,0.10558051 69.5380402,0.10558051 C68.3852575,0.4781624 67.8088661,0.664453345 67.8088661,0.664453345 C66.5922658,0.91534392 65.9839656,1.04078921 65.9839656,1.04078921 C64.6763314,1.72025845 64.0225143,2.05999307 64.0225143,2.05999307 C62.7414708,2.75166272 62.1009491,3.09749755 62.1009491,3.09749755 C61.0291896,4.12984032 60.4933098,4.6460117 60.4933098,4.6460117 C59.609249,5.57074056 59.1672186,6.03310498 59.1672186,6.03310498 C58.4423889,7.37953022 58.079974,8.05274283 58.079974,8.05274283 C57.6035322,9.26965597 57.3653112,9.87811254 57.3653112,9.87811254 C57.0299563,11.2501899 56.8622788,11.9362286 56.8622788,11.9362286 L56.478435,13.9431968 C56.1465211,16.0304062 55.9805642,17.0740109 55.9805642,17.0740109 Z" id="Path-73" stroke-width="2" fill="#EFF1FC"></path>
            <path d="M169.784563,122.444582 L169.784563,188.897587 C104.655118,188.897587 72.0903955,188.897587 72.0903955,188.897587 L72.3504693,118.079096 L169.784563,118.079096" id="Path-83" stroke-width="2" fill="#EFF1FC"></path>
            <polygon id="Path-82" stroke-width="2" fill="#DCDFFF" points="77.0621469 183.806133 77.0621469 121.80791 169.973066 121.80791 169.973066 183.806133"></polygon>
            <path d="M63.3898305,197.627119 L180.706676,197.627119" id="Path-86" stroke-width="2"></path>
            <polygon id="Path-88" fill="#DCDFFF" points="234.363568 128.345679 234.363568 163.577807 181.468927 163.577807 182.035106 123.050847"></polygon>
            <polygon id="Path-89" fill="#DCDFFF" points="181.468927 175.254237 234.3806 175.254237 234.3806 209.317879 181.468927 209.317879"></polygon>
            <path d="M234.915254,197.627119 L253.016983,197.627119" id="Path-90" stroke-width="2"></path>
            <polygon id="Path-91" fill="#C9CEFB" points="242.809638 130.66911 242.809638 208.783749 238.644068 208.783749 238.644068 126.779661"></polygon>
            <polygon id="Path-9" stroke-width="2" points="90.7344633 44.7457627 226.004384 44.7457627 226.004384 53.9706622 90.7344633 53.9706622"></polygon>
            <polygon id="Path-87" fill="#C9CEFB" points="180.225989 130.911956 180.225989 209.221988 183.994874 209.221988 183.994874 125.536723"></polygon>
            <g id="Group-54" transform="translate(52.203390, 96.949153)" stroke-width="2">
                <path d="M79.7807262,0 L105.898592,0 C105.875178,20.327015 105.863471,30.4905225 105.863471,30.4905225 C105.55056,31.7652663 105.394105,32.4026382 105.394105,32.4026382 C104.882907,33.5335894 104.627308,34.0990649 104.627308,34.0990649 L103.641198,35.6166933 L102.297594,36.8909384 C101.438041,37.6267322 101.008264,37.9946291 101.008264,37.9946291 C99.926262,38.7395173 99.3852608,39.1119614 99.3852608,39.1119614 C98.4114191,39.5769738 97.9244983,39.80948 97.9244983,39.80948 C96.9719729,40.1955429 96.4957103,40.3885743 96.4957103,40.3885743 C95.3876545,40.6238438 94.8336266,40.7414785 94.8336266,40.7414785 C93.4634585,40.7971378 92.7783745,40.8249675 92.7783745,40.8249675 C91.5779479,40.6998326 90.9777345,40.6372652 90.9777345,40.6372652 C89.6012505,40.2883085 88.9130086,40.1138302 88.9130086,40.1138302 L86.9365893,39.1987797 C85.8478223,38.4118025 85.3034389,38.0183139 85.3034389,38.0183139 C84.2793989,37.2019011 83.767379,36.7936946 83.767379,36.7936946 C82.7837339,35.7030831 82.2919114,35.1577773 82.2919114,35.1577773 C81.5782812,34.0788759 81.2214662,33.5394253 81.2214662,33.5394253 C80.7287484,32.6122206 80.4823896,32.1486183 80.4823896,32.1486183 C80.1456701,30.9892454 79.9773103,30.4095589 79.9773103,30.4095589 L79.5480226,28.6527359 L79.7807262,0 Z" id="Path-11" fill="#EFF1FC"></path>
                <path d="M53.6790312,0 L79.796897,0 C79.7734829,20.327015 79.7617759,30.4905225 79.7617759,30.4905225 C79.4488652,31.7652663 79.2924099,32.4026382 79.2924099,32.4026382 C78.7812121,33.5335894 78.5256132,34.0990649 78.5256132,34.0990649 L77.5395034,35.6166933 L76.1958988,36.8909384 C75.336346,37.6267322 74.9065696,37.9946291 74.9065696,37.9946291 C73.8245671,38.7395173 73.2835659,39.1119614 73.2835659,39.1119614 C72.3097242,39.5769738 71.8228033,39.80948 71.8228033,39.80948 C70.870278,40.1955429 70.3940153,40.3885743 70.3940153,40.3885743 C69.2859595,40.6238438 68.7319317,40.7414785 68.7319317,40.7414785 C67.3617636,40.7971378 66.6766796,40.8249675 66.6766796,40.8249675 C65.4762529,40.6998326 64.8760396,40.6372652 64.8760396,40.6372652 C63.4995556,40.2883085 62.8113136,40.1138302 62.8113136,40.1138302 L60.8348944,39.1987797 C59.7461274,38.4118025 59.2017439,38.0183139 59.2017439,38.0183139 C58.177704,37.2019011 57.665684,36.7936946 57.665684,36.7936946 C56.682039,35.7030831 56.1902165,35.1577773 56.1902165,35.1577773 C55.4765863,34.0788759 55.1197713,33.5394253 55.1197713,33.5394253 C54.6270535,32.6122206 54.3806946,32.1486183 54.3806946,32.1486183 C54.0439752,30.9892454 53.8756154,30.4095589 53.8756154,30.4095589 L53.4463277,28.6527359 L53.6790312,0 Z" id="Path-11-Copy-5" fill="#A8B0F3"></path>
                <path d="M27.5773363,0 L53.6952021,0 C53.671788,20.327015 53.660081,30.4905225 53.660081,30.4905225 C53.3471703,31.7652663 53.190715,32.4026382 53.190715,32.4026382 C52.6795172,33.5335894 52.4239183,34.0990649 52.4239183,34.0990649 L51.4378085,35.6166933 L50.0942039,36.8909384 C49.2346511,37.6267322 48.8048747,37.9946291 48.8048747,37.9946291 C47.7228722,38.7395173 47.181871,39.1119614 47.181871,39.1119614 C46.2080293,39.5769738 45.7211084,39.80948 45.7211084,39.80948 C44.7685831,40.1955429 44.2923204,40.3885743 44.2923204,40.3885743 C43.1842646,40.6238438 42.6302367,40.7414785 42.6302367,40.7414785 C41.2600687,40.7971378 40.5749847,40.8249675 40.5749847,40.8249675 C39.374558,40.6998326 38.7743447,40.6372652 38.7743447,40.6372652 C37.3978607,40.2883085 36.7096187,40.1138302 36.7096187,40.1138302 L34.7331995,39.1987797 C33.6444325,38.4118025 33.100049,38.0183139 33.100049,38.0183139 C32.0760091,37.2019011 31.5639891,36.7936946 31.5639891,36.7936946 C30.5803441,35.7030831 30.0885215,35.1577773 30.0885215,35.1577773 C29.3748914,34.0788759 29.0180763,33.5394253 29.0180763,33.5394253 C28.5253586,32.6122206 28.2789997,32.1486183 28.2789997,32.1486183 C27.9422802,30.9892454 27.7739205,30.4095589 27.7739205,30.4095589 L27.3446328,28.6527359 L27.5773363,0 Z" id="Path-11-Copy-6" fill="#EFF1FC"></path>
                <path d="M0.232703558,0 L26.3505694,0 C26.3271552,20.327015 26.3154482,30.4905225 26.3154482,30.4905225 C26.0025376,31.7652663 25.8460822,32.4026382 25.8460822,32.4026382 C25.3348844,33.5335894 25.0792855,34.0990649 25.0792855,34.0990649 L24.0931757,35.6166933 L22.7495711,36.8909384 C21.8900183,37.6267322 21.4602419,37.9946291 21.4602419,37.9946291 C20.3782394,38.7395173 19.8372382,39.1119614 19.8372382,39.1119614 C18.8633965,39.5769738 18.3764757,39.80948 18.3764757,39.80948 C17.4239503,40.1955429 16.9476877,40.3885743 16.9476877,40.3885743 C15.8396319,40.6238438 15.285604,40.7414785 15.285604,40.7414785 C13.9154359,40.7971378 13.2303519,40.8249675 13.2303519,40.8249675 C12.0299253,40.6998326 11.4297119,40.6372652 11.4297119,40.6372652 C10.0532279,40.2883085 9.36498595,40.1138302 9.36498595,40.1138302 L7.38856671,39.1987797 C6.29979974,38.4118025 5.75541625,38.0183139 5.75541625,38.0183139 C4.73137632,37.2019011 4.21935636,36.7936946 4.21935636,36.7936946 C3.2357113,35.7030831 2.74388878,35.1577773 2.74388878,35.1577773 C2.03025864,34.0788759 1.67344357,33.5394253 1.67344357,33.5394253 C1.18072583,32.6122206 0.93436696,32.1486183 0.93436696,32.1486183 C0.597647476,30.9892454 0.429287735,30.4095589 0.429287735,30.4095589 L0,28.6527359 L0.232703558,0 Z" id="Path-11-Copy-7" fill="#A8B0F3"></path>
                <path d="M105.882421,0 L132.000287,0 C131.976873,20.327015 131.965166,30.4905225 131.965166,30.4905225 C131.652255,31.7652663 131.4958,32.4026382 131.4958,32.4026382 C130.984602,33.5335894 130.729003,34.0990649 130.729003,34.0990649 L129.742893,35.6166933 L128.399289,36.8909384 C127.539736,37.6267322 127.109959,37.9946291 127.109959,37.9946291 C126.027957,38.7395173 125.486956,39.1119614 125.486956,39.1119614 C124.513114,39.5769738 124.026193,39.80948 124.026193,39.80948 C123.073668,40.1955429 122.597405,40.3885743 122.597405,40.3885743 C121.489349,40.6238438 120.935321,40.7414785 120.935321,40.7414785 C119.565153,40.7971378 118.880069,40.8249675 118.880069,40.8249675 C117.679643,40.6998326 117.079429,40.6372652 117.079429,40.6372652 C115.702945,40.2883085 115.014703,40.1138302 115.014703,40.1138302 L113.038284,39.1987797 C111.949517,38.4118025 111.405134,38.0183139 111.405134,38.0183139 C110.381094,37.2019011 109.869074,36.7936946 109.869074,36.7936946 C108.885429,35.7030831 108.393606,35.1577773 108.393606,35.1577773 C107.679976,34.0788759 107.323161,33.5394253 107.323161,33.5394253 C106.830443,32.6122206 106.584084,32.1486183 106.584084,32.1486183 C106.247365,30.9892454 106.079005,30.4095589 106.079005,30.4095589 L105.649718,28.6527359 L105.882421,0 Z" id="Path-11-Copy" fill="#A8B0F3"></path>
                <path d="M131.984116,0 L158.101982,0 C158.078568,20.327015 158.066861,30.4905225 158.066861,30.4905225 C157.75395,31.7652663 157.597495,32.4026382 157.597495,32.4026382 C157.086297,33.5335894 156.830698,34.0990649 156.830698,34.0990649 L155.844588,35.6166933 L154.500984,36.8909384 C153.641431,37.6267322 153.211654,37.9946291 153.211654,37.9946291 C152.129652,38.7395173 151.588651,39.1119614 151.588651,39.1119614 C150.614809,39.5769738 150.127888,39.80948 150.127888,39.80948 C149.175363,40.1955429 148.6991,40.3885743 148.6991,40.3885743 C147.591044,40.6238438 147.037016,40.7414785 147.037016,40.7414785 C145.666848,40.7971378 144.981764,40.8249675 144.981764,40.8249675 C143.781338,40.6998326 143.181124,40.6372652 143.181124,40.6372652 C141.80464,40.2883085 141.116398,40.1138302 141.116398,40.1138302 L139.139979,39.1987797 C138.051212,38.4118025 137.506829,38.0183139 137.506829,38.0183139 C136.482789,37.2019011 135.970769,36.7936946 135.970769,36.7936946 C134.987124,35.7030831 134.495301,35.1577773 134.495301,35.1577773 C133.781671,34.0788759 133.424856,33.5394253 133.424856,33.5394253 C132.932138,32.6122206 132.685779,32.1486183 132.685779,32.1486183 C132.34906,30.9892454 132.1807,30.4095589 132.1807,30.4095589 L131.751412,28.6527359 L131.984116,0 Z" id="Path-11-Copy-2" fill="#EFF1FC"></path>
                <path d="M158.085811,0 L184.203677,0 C184.180263,20.327015 184.168556,30.4905225 184.168556,30.4905225 C183.855645,31.7652663 183.69919,32.4026382 183.69919,32.4026382 C183.187992,33.5335894 182.932393,34.0990649 182.932393,34.0990649 L181.946283,35.6166933 L180.602678,36.8909384 C179.743126,37.6267322 179.313349,37.9946291 179.313349,37.9946291 C178.231347,38.7395173 177.690346,39.1119614 177.690346,39.1119614 C176.716504,39.5769738 176.229583,39.80948 176.229583,39.80948 C175.277058,40.1955429 174.800795,40.3885743 174.800795,40.3885743 C173.692739,40.6238438 173.138711,40.7414785 173.138711,40.7414785 C171.768543,40.7971378 171.083459,40.8249675 171.083459,40.8249675 C169.883033,40.6998326 169.282819,40.6372652 169.282819,40.6372652 C167.906335,40.2883085 167.218093,40.1138302 167.218093,40.1138302 L165.241674,39.1987797 C164.152907,38.4118025 163.608524,38.0183139 163.608524,38.0183139 C162.584484,37.2019011 162.072464,36.7936946 162.072464,36.7936946 C161.088819,35.7030831 160.596996,35.1577773 160.596996,35.1577773 C159.883366,34.0788759 159.526551,33.5394253 159.526551,33.5394253 C159.033833,32.6122206 158.787474,32.1486183 158.787474,32.1486183 C158.450755,30.9892454 158.282395,30.4095589 158.282395,30.4095589 L157.853107,28.6527359 L158.085811,0 Z" id="Path-11-Copy-3" fill="#A8B0F3"></path>
                <path d="M185.430444,0 L211.548309,0 C211.524895,20.327015 211.513188,30.4905225 211.513188,30.4905225 C211.200278,31.7652663 211.043822,32.4026382 211.043822,32.4026382 C210.532625,33.5335894 210.277026,34.0990649 210.277026,34.0990649 L209.290916,35.6166933 L207.947311,36.8909384 C207.087758,37.6267322 206.657982,37.9946291 206.657982,37.9946291 C205.57598,38.7395173 205.034978,39.1119614 205.034978,39.1119614 C204.061137,39.5769738 203.574216,39.80948 203.574216,39.80948 C202.62169,40.1955429 202.145428,40.3885743 202.145428,40.3885743 C201.037372,40.6238438 200.483344,40.7414785 200.483344,40.7414785 C199.113176,40.7971378 198.428092,40.8249675 198.428092,40.8249675 C197.227665,40.6998326 196.627452,40.6372652 196.627452,40.6372652 C195.250968,40.2883085 194.562726,40.1138302 194.562726,40.1138302 L192.586307,39.1987797 C191.49754,38.4118025 190.953156,38.0183139 190.953156,38.0183139 C189.929116,37.2019011 189.417096,36.7936946 189.417096,36.7936946 C188.433451,35.7030831 187.941629,35.1577773 187.941629,35.1577773 C187.227999,34.0788759 186.871184,33.5394253 186.871184,33.5394253 C186.378466,32.6122206 186.132107,32.1486183 186.132107,32.1486183 C185.795388,30.9892454 185.627028,30.4095589 185.627028,30.4095589 L185.19774,28.6527359 L185.430444,0 Z" id="Path-11-Copy-4" fill="#EFF1FC"></path>
            </g>
            <polygon id="Path-84" stroke-width="2" fill="#EFF1FC" points="58.4180791 208.813559 58.4180791 218.924018 258.849293 218.924018 258.849293 208.813559"></polygon>
        </g>
    </g>
</svg>