<?xml version="1.0" encoding="UTF-8"?>
<svg width="73px" height="73px" viewBox="0 0 73 73" version="1.1" xmlns="http://www.w3.org/2000/svg" xmlns:xlink="http://www.w3.org/1999/xlink">
    <!-- Generator: Sketch 49 (51002) - http://www.bohemiancoding.com/sketch -->
    <title>Group 40</title>
    <desc>Created with Sketch.</desc>
    <defs></defs>
    <g id="Page-1" stroke="none" stroke-width="1" fill="none" fill-rule="evenodd">
        <g id="Artboard-3" transform="translate(-866.000000, -1938.000000)">
            <g id="Group-40" transform="translate(866.000000, 1938.000000)">
                <g id="Group-39-Copy" fill="#8BE8B3">
                    <g id="Group-13">
                        <circle id="Oval-2" cx="36.5" cy="36.5" r="36.5"></circle>
                    </g>
                </g>
                <path d="M27,11 L45.6000004,11 C47.8091394,11 49.6000004,12.790861 49.6000004,15 L49.6000004,56.0999985 C49.6000004,58.3091375 47.8091394,60.0999985 45.6000004,60.0999985 L27,60.0999985 C24.790861,60.0999985 23,58.3091375 23,56.0999985 L23,15 C23,12.790861 24.790861,11 27,11 Z M25.5,19.3000488 L25.5,52.3000488 L47.2000008,52.3000488 L47.2000008,19.3000488 L25.5,19.3000488 Z M34.5,15.4000244 C34.2238576,15.4000244 34,15.623882 34,15.9000244 C34,16.1761668 34.2238576,16.4000244 34.5,16.4000244 L38.5,16.4000244 C38.7761424,16.4000244 39,16.1761668 39,15.9000244 C39,15.623882 38.7761424,15.4000244 38.5,15.4000244 L34.5,15.4000244 Z M36.2000122,57.6999512 C37.3045817,57.6999512 38.2000122,56.8045207 38.2000122,55.6999512 C38.2000122,54.5953817 37.3045817,53.6999512 36.2000122,53.6999512 C35.0954427,53.6999512 34.2000122,54.5953817 34.2000122,55.6999512 C34.2000122,56.8045207 35.0954427,57.6999512 36.2000122,57.6999512 Z" id="Combined-Shape" fill="#FFFFFF"></path>
            </g>
        </g>
    </g>
</svg>