<?xml version="1.0" encoding="UTF-8"?>
<svg width="67px" height="58px" viewBox="0 0 67 58" version="1.1" xmlns="http://www.w3.org/2000/svg" xmlns:xlink="http://www.w3.org/1999/xlink">
    <!-- Generator: Sketch 49 (51002) - http://www.bohemiancoding.com/sketch -->
    <title>Group 18 Copy</title>
    <desc>Created with Sketch.</desc>
    <defs></defs>
    <g id="Page-1" stroke="none" stroke-width="1" fill="none" fill-rule="evenodd">
        <g id="Group-18-Copy" fill="#FFFFFF">
            <path d="M57.6439169,30.2106362 C57.6014194,29.6104866 57.5801707,29.3104118 57.5801707,29.3104118 C57.533456,28.8883102 57.5100987,28.6772595 57.5100987,28.6772595 C57.4761674,28.3805002 57.4592018,28.2321206 57.4592018,28.2321206 C57.409094,27.9625478 57.3840401,27.8277613 57.3840401,27.8277613 C57.3582366,27.6082938 57.3453348,27.4985601 57.3453348,27.4985601 C57.2702915,27.2956099 57.2327698,27.1941349 57.2327698,27.1941349 C57.1111697,27.0371014 57.0503696,26.9585846 57.0503696,26.9585846 C56.8085108,26.9324256 56.6875814,26.919346 56.6875814,26.919346 C56.447064,27.0123649 56.3268053,27.0588743 56.3268053,27.0588743 C56.1228233,27.172441 56.0208322,27.2292244 56.0208322,27.2292244 C55.7695831,27.38934 55.6439586,27.4693978 55.6439586,27.4693978 C55.3159301,27.6661046 55.1519159,27.764458 55.1519159,27.764458 C54.8371443,28.0375871 54.6797585,28.1741517 54.6797585,28.1741517 C54.3539396,28.5654314 54.1910301,28.7610712 54.1910301,28.7610712 C53.6430009,29.4444474 53.3689863,29.7861355 53.3689863,29.7861355 C52.7310787,30.6656652 52.4121249,31.10543 52.4121249,31.10543 C51.8098056,32.0443115 51.508646,32.5137523 51.508646,32.5137523 C50.9386798,33.4794252 50.6536967,33.9622616 50.6536967,33.9622616 C50.0086873,35.0416593 49.6861825,35.5813581 49.6861825,35.5813581 C49.1787919,36.4991385 48.9250966,36.9580287 48.9250966,36.9580287 C48.4349872,37.9328691 48.1899325,38.4202893 48.1899325,38.4202893 C47.738489,39.2885176 47.5127673,39.7226318 47.5127673,39.7226318 C46.9821136,40.6904258 46.7167868,41.1743228 46.7167868,41.1743228 L45.6768309,42.4743752 L44.4279803,43.3357702 L42.8428759,43.7483964 L41.3031646,43.7008519 L39.7630231,43.1017048 L38.0167836,41.8816821 L36.5751732,40.4381355 L35.3594532,38.9369332 C34.9056647,38.3413 34.6787705,38.0434833 34.6787705,38.0434833 C35.1452415,37.2521969 35.378477,36.8565536 35.378477,36.8565536 C36.1594482,35.6903806 36.5499338,35.107294 36.5499338,35.107294 C37.4746,33.6905945 37.9369331,32.9822447 37.9369331,32.9822447 C38.974756,31.2988175 39.4936675,30.4571038 39.4936675,30.4571038 C40.2583833,29.2739392 40.6407412,28.6823569 40.6407412,28.6823569 C41.1944519,27.8287492 41.4713073,27.4019454 41.4713073,27.4019454 C42.1987776,26.1946765 42.5625128,25.591042 42.5625128,25.591042 C43.6330044,23.8304811 44.1682502,22.9502006 44.1682502,22.9502006 C45.1743514,21.1694079 45.677402,20.2790115 45.677402,20.2790115 C46.4298868,18.9165268 46.8061291,18.2352845 46.8061291,18.2352845 C47.3415328,17.171851 47.6092346,16.6401342 47.6092346,16.6401342 C48.1647603,15.5736186 48.4425231,15.0403607 48.4425231,15.0403607 C49.0187232,13.7883606 49.3068232,13.1623605 49.3068232,13.1623605 C49.9081166,11.9120201 50.2087633,11.2868498 50.2087633,11.2868498 C50.8087941,9.86777936 51.1088096,9.15824413 51.1088096,9.15824413 C51.6378215,7.90237153 51.9023275,7.27443522 51.9023275,7.27443522 C52.4033264,6.06139711 52.6538259,5.45487805 52.6538259,5.45487805 C53.010183,4.46035908 53.1883615,3.9630996 53.1883615,3.9630996 L53.6095036,2.73864159 C53.8025961,2.085297 53.8991424,1.75862471 53.8991424,1.75862471 C54.0300539,1.28301956 54.0955097,1.04521699 54.0955097,1.04521699 C54.2566437,0.730438776 54.3372107,0.573049669 54.3372107,0.573049669 C54.5101023,0.357691739 54.5965481,0.250012774 54.5965481,0.250012774 C54.798005,0.112499821 54.8987335,0.0437433446 54.8987335,0.0437433446 C55.1593729,0.0145811149 55.2896926,0 55.2896926,0 C55.5566448,0.0470231075 55.6901208,0.0705346613 55.6901208,0.0705346613 C56.0182282,0.187657763 56.1822819,0.246219314 56.1822819,0.246219314 C56.6207052,0.466635191 56.8399169,0.576843129 56.8399169,0.576843129 C57.5307731,0.938328329 57.8762011,1.11907093 57.8762011,1.11907093 C58.7708815,1.68737877 59.2182217,1.97153269 59.2182217,1.97153269 C59.9742574,2.57216398 60.3522753,2.87247963 60.3522753,2.87247963 C61.145951,3.57118768 61.5427889,3.92054171 61.5427889,3.92054171 C62.3520099,4.760082 62.7566204,5.17985214 62.7566204,5.17985214 C63.4717018,6.10039863 63.8292426,6.56067187 63.8292426,6.56067187 C64.4052059,7.4426515 64.6931876,7.88364131 64.6931876,7.88364131 C65.2317476,8.89167448 65.5010276,9.39569107 65.5010276,9.39569107 C65.9327437,10.3996937 66.1486017,10.901695 66.1486017,10.901695 C66.4625052,11.9806975 66.619457,12.5201987 66.619457,12.5201987 C66.808683,13.3655873 66.9032959,13.7882816 66.9032959,13.7882816 C66.9450393,14.6314572 66.9659109,15.0530451 66.9659109,15.0530451 C66.988637,16.1188495 67,16.6517517 67,16.6517517 C66.9598349,17.4619717 66.9397523,17.8670817 66.9397523,17.8670817 C66.7943214,18.7867589 66.7216059,19.2465974 66.7216059,19.2465974 C66.4575734,20.3756262 66.3255571,20.9401406 66.3255571,20.9401406 C66.0272777,21.9667459 65.878138,22.4800486 65.878138,22.4800486 C65.6058989,23.4375813 65.4697793,23.9163476 65.4697793,23.9163476 C65.246701,24.7388964 65.1351619,25.1501708 65.1351619,25.1501708 C64.9199746,26.1448478 64.812381,26.6421863 64.812381,26.6421863 C64.5709167,27.9622316 64.4501845,28.6222543 64.4501845,28.6222543 C64.224739,30.0310508 64.1120162,30.735449 64.1120162,30.735449 C63.8717356,32.062291 63.7515952,32.7257119 63.7515952,32.7257119 C63.6216306,33.9456257 63.5566483,34.5555826 63.5566483,34.5555826 C63.4288932,35.4731259 63.3650157,35.9318976 63.3650157,35.9318976 C63.2589608,37.1726754 63.2059333,37.7930643 63.2059333,37.7930643 C63.0940391,39.2637416 63.038092,39.9990802 63.038092,39.9990802 C62.9435579,41.3615649 62.8962909,42.0428072 62.8962909,42.0428072 C62.8117784,43.2201236 62.7695221,43.8087818 62.7695221,43.8087818 C62.721466,45.3658394 62.6974379,46.1443682 62.6974379,46.1443682 C62.6872586,47.7733434 62.6821689,48.5878311 62.6821689,48.5878311 C62.6677284,50.3778704 62.6605081,51.27289 62.6605081,51.27289 C62.6636645,53.0604004 62.6652427,53.9541555 62.6652427,53.9541555 C62.6215266,55.4366874 62.5996686,56.1779534 62.5996686,56.1779534 C62.5641591,57.3926511 62.5464044,58 62.5464044,58 C59.7494431,57.997392 58.3509625,57.996088 58.3509625,57.996088 C58.4432871,56.7430605 58.4894494,56.1165467 58.4894494,56.1165467 C58.5419245,55.0154947 58.568162,54.4649687 58.568162,54.4649687 C58.5671362,53.154249 58.5666233,52.4988891 58.5666233,52.4988891 C58.5571541,51.2123527 58.5524195,50.5690845 58.5524195,50.5690845 C58.5418456,49.3551771 58.5365586,48.7482233 58.5365586,48.7482233 C58.5008913,47.0059975 58.4830577,46.1348845 58.4830577,46.1348845 C58.4174836,44.7008773 58.3846965,43.9838737 58.3846965,43.9838737 C58.2960807,42.3120639 58.2517728,41.476159 58.2517728,41.476159 C58.2311773,39.8298761 58.2208796,39.0067346 58.2208796,39.0067346 C58.1490716,37.4383757 58.1131676,36.6541962 58.1131676,36.6541962 C58.0150036,35.1334136 57.9659217,34.3730223 57.9659217,34.3730223 C57.917471,33.2658059 57.8932457,32.7121977 57.8932457,32.7121977 L57.7960681,31.2180484 L57.6439169,30.2106362 Z" id="Path-54"></path>
            <path d="M57.5916524,30.1549197 C57.5489175,29.5558769 57.5275501,29.2563555 57.5275501,29.2563555 C57.4805745,28.8350324 57.4570867,28.6243709 57.4570867,28.6243709 C57.4229659,28.3281589 57.4059055,28.1800529 57.4059055,28.1800529 C57.3555178,27.9109773 57.3303239,27.7764395 57.3303239,27.7764395 C57.3043763,27.5573767 57.2914024,27.4478453 57.2914024,27.4478453 C57.2159399,27.2452695 57.1782086,27.1439815 57.1782086,27.1439815 C57.0559292,26.9872377 56.9947895,26.9088658 56.9947895,26.9088658 C56.7515796,26.8827549 56.6299747,26.8696995 56.6299747,26.8696995 C56.3881137,26.9625468 56.2671833,27.0089704 56.2671833,27.0089704 C56.0620617,27.1223277 55.9595009,27.1790063 55.9595009,27.1790063 C55.7068483,27.3388267 55.580522,27.4187369 55.580522,27.4187369 C55.2506612,27.6150808 55.0857307,27.7132528 55.0857307,27.7132528 C54.7692008,27.9858783 54.6109358,28.122191 54.6109358,28.122191 C54.2832968,28.5127491 54.1194773,28.7080281 54.1194773,28.7080281 C53.5683867,29.3901439 53.2928414,29.7312018 53.2928414,29.7312018 C52.6513703,30.6091094 52.3306348,31.0480632 52.3306348,31.0480632 C51.7249509,31.9852132 51.422109,32.4537882 51.422109,32.4537882 C50.8489589,33.4176801 50.5623839,33.899626 50.5623839,33.899626 C49.9137713,34.977033 49.589465,35.5157365 49.589465,35.5157365 C49.07924,36.4318243 48.8241275,36.8898681 48.8241275,36.8898681 C48.3312803,37.8629107 48.0848567,38.3494319 48.0848567,38.3494319 C47.6308913,39.216059 47.4039087,39.6493726 47.4039087,39.6493726 C46.7836243,40.9031657 46.4734821,41.5300622 46.4734821,41.5300622 C46.0009487,42.46595 45.764682,42.933894 45.764682,42.933894 C45.2926246,43.9775383 45.056596,44.4993604 45.056596,44.4993604 C44.5781906,45.5254134 44.338988,46.03844 44.338988,46.03844 C43.8164636,47.2508975 43.5552014,47.8571262 43.5552014,47.8571262 C42.9526916,49.156278 42.6514367,49.8058539 42.6514367,49.8058539 C42.2419871,50.7172875 42.0372623,51.1730043 42.0372623,51.1730043 C41.6662184,51.849046 41.4806965,52.1870669 41.4806965,52.1870669 C41.0682315,53.0140938 40.8619991,53.4276073 40.8619991,53.4276073 C40.5931589,53.8051494 40.4587388,53.9939204 40.4587388,53.9939204 C40.1202287,54.4782724 39.9509737,54.7204483 39.9509737,54.7204483 C39.568424,55.1050111 39.3771491,55.2972926 39.3771491,55.2972926 C38.8595445,55.6899016 38.6007422,55.8862061 38.6007422,55.8862061 C38.119877,56.1340618 37.8794444,56.2579896 37.8794444,56.2579896 C37.3432717,56.4449463 37.0751854,56.5384247 37.0751854,56.5384247 C36.444268,56.7287734 36.1288093,56.8239478 36.1288093,56.8239478 C35.2024692,57.0262081 34.7392992,57.1273382 34.7392992,57.1273382 C33.6715562,57.2853442 33.1376847,57.3643473 33.1376847,57.3643473 C32.2042031,57.5566681 31.7374623,57.6528285 31.7374623,57.6528285 C30.5103037,57.7446503 29.8967245,57.7905612 29.8967245,57.7905612 C28.0922102,57.8879049 27.1899531,57.9365767 27.1899531,57.9365767 C25.0784311,57.9788589 24.02267,58 24.02267,58 C21.6912672,57.9533792 20.5255657,57.9300687 20.5255657,57.9300687 C18.9575959,57.8821857 18.173611,57.8582442 18.173611,57.8582442 C16.4315458,57.731161 15.5605132,57.6676194 15.5605132,57.6676194 C14.1185523,57.5414828 13.3975719,57.4784145 13.3975719,57.4784145 C11.7502514,57.2927988 10.9265911,57.199991 10.9265911,57.199991 C9.3487025,56.9962319 8.55975818,56.8943523 8.55975818,56.8943523 C7.14247536,56.6715031 6.43383395,56.5600785 6.43383395,56.5600785 C5.28737507,56.3439345 4.71414562,56.2358625 4.71414562,56.2358625 C3.57950999,55.9872968 3.01219218,55.863014 3.01219218,55.863014 C2.23661845,55.6011169 1.84883159,55.4701683 1.84883159,55.4701683 C1.40787976,55.2558387 1.18740385,55.1486738 1.18740385,55.1486738 C0.848735067,54.9322143 0.679400677,54.8239845 0.679400677,54.8239845 C0.452060927,54.5871727 0.338391052,54.4687668 0.338391052,54.4687668 C0.213572404,54.2013477 0.15116308,54.0676382 0.15116308,54.0676382 C0.0756212153,53.7520995 0.037850283,53.5943301 0.037850283,53.5943301 C0.012616761,53.2566248 0,53.0877721 0,53.0877721 C0.0376915816,52.7901402 0.0565373724,52.6413243 0.0565373724,52.6413243 C0.117002604,52.2886309 0.14723522,52.1122842 0.14723522,52.1122842 C0.255707625,51.808657 0.309943827,51.6568435 0.309943827,51.6568435 C0.385565042,51.3223724 0.42337565,51.1551369 0.42337565,51.1551369 C0.599930953,50.8791194 0.688208605,50.7411107 0.688208605,50.7411107 C0.871429367,50.4531816 0.963039748,50.3092171 0.963039748,50.3092171 C1.17784209,50.0342251 1.28524326,49.8967291 1.28524326,49.8967291 C1.60018618,49.6611005 1.75765764,49.5432863 1.75765764,49.5432863 C2.22455715,49.2118917 2.4580069,49.0461945 2.4580069,49.0461945 C3.05139142,48.7327856 3.34808368,48.5760812 3.34808368,48.5760812 C4.18372588,48.1519972 4.60154698,47.9399552 4.60154698,47.9399552 C5.44369594,47.5277827 5.86477042,47.3216965 5.86477042,47.3216965 C6.99877125,46.8877519 7.56577166,46.6707796 7.56577166,46.6707796 C8.67914131,46.1811423 9.23582613,45.9363237 9.23582613,45.9363237 C10.2034285,45.5534175 10.6872297,45.3619644 10.6872297,45.3619644 C11.5863525,44.9531051 12.0359139,44.7486755 12.0359139,44.7486755 C13.0727895,44.3103922 13.5912272,44.0912505 13.5912272,44.0912505 C14.5842219,43.6577003 15.0807192,43.4409252 15.0807192,43.4409252 C15.8691477,43.1292519 16.263362,42.9734152 16.263362,42.9734152 C16.7246276,42.8221933 16.9552604,42.7465823 16.9552604,42.7465823 C17.4055756,42.6577581 17.6307332,42.6133461 17.6307332,42.6133461 C18.0109024,42.5660153 18.200987,42.5423499 18.200987,42.5423499 C18.5186279,42.5877874 18.6774483,42.6105062 18.6774483,42.6105062 C18.9725535,42.6886809 19.1201062,42.7277683 19.1201062,42.7277683 C19.4233845,42.9081776 19.5750237,42.9983822 19.5750237,42.9983822 C19.7898261,43.2512076 19.8972272,43.3776203 19.8972272,43.3776203 C20.1448808,43.6246871 20.2687075,43.7482205 20.2687075,43.7482205 C20.6149146,43.9963917 20.7880182,44.1204773 20.7880182,44.1204773 C21.2354767,44.3646254 21.459206,44.4866994 21.459206,44.4866994 L22.0836167,44.8156485 C22.5306785,45.0052084 22.7542094,45.0999884 22.7542094,45.0999884 C23.1793705,45.2004086 23.391951,45.2506187 23.391951,45.2506187 C23.912809,45.3489879 24.173238,45.3981725 24.173238,45.3981725 C24.7957442,45.4091374 25.1069973,45.4146199 25.1069973,45.4146199 C25.7333917,45.3688668 26.0465889,45.3459902 26.0465889,45.3459902 C26.6299753,45.2477788 26.9216684,45.1986731 26.9216684,45.1986731 C27.5264794,44.9917586 27.828885,44.8883013 27.828885,44.8883013 C28.3594237,44.6360281 28.6246931,44.5098915 28.6246931,44.5098915 C29.1684041,44.1510451 29.4402596,43.9716219 29.4402596,43.9716219 C30.0038876,43.4712564 30.2857016,43.2210736 30.2857016,43.2210736 C30.9568498,42.4980955 31.2924239,42.1366065 31.2924239,42.1366065 C32.0191969,41.3473653 32.3825835,40.9527447 32.3825835,40.9527447 C33.0072322,40.0946371 33.3195565,39.6655834 33.3195565,39.6655834 C33.8802485,38.8293269 34.1605946,38.4111986 34.1605946,38.4111986 C34.8547545,37.329453 35.2018344,36.7885802 35.2018344,36.7885802 C35.9871683,35.6245579 36.3798352,35.0425467 36.3798352,35.0425467 C37.3096667,33.62846 37.7745824,32.9214166 37.7745824,32.9214166 C38.8182028,31.241094 39.340013,30.4009327 39.340013,30.4009327 C40.1090006,29.2199502 40.4934944,28.6294589 40.4934944,28.6294589 C41.0502983,27.7774255 41.3287002,27.3514088 41.3287002,27.3514088 C42.0602343,26.1463664 42.4260013,25.5438453 42.4260013,25.5438453 C43.5024729,23.7865313 44.0407087,22.9078743 44.0407087,22.9078743 C45.0524301,21.1303658 45.5582908,20.2416115 45.5582908,20.2416115 C46.314979,18.8816397 46.6933232,18.2016537 46.6933232,18.2016537 C47.2317177,17.1401815 47.5009149,16.6094454 47.5009149,16.6094454 C48.0595438,15.5448966 48.3388583,15.0126222 48.3388583,15.0126222 C48.9182771,13.7629311 49.2079865,13.1380856 49.2079865,13.1380856 C49.8126388,11.8900511 50.1149649,11.2660338 50.1149649,11.2660338 C50.7183477,9.84958052 51.020039,9.14135387 51.020039,9.14135387 C51.5520061,7.88779742 51.8179896,7.2610192 51.8179896,7.2610192 C52.3217872,6.05021826 52.573686,5.44481779 52.573686,5.44481779 C52.9320338,4.45213298 53.1112076,3.95579058 53.1112076,3.95579058 L53.5347023,2.7335908 C53.7288735,2.08145115 53.825959,1.75538133 53.825959,1.75538133 C53.9576019,1.28065333 54.0234233,1.04328933 54.0234233,1.04328933 C54.1854574,0.72909165 54.2664744,0.571992811 54.2664744,0.571992811 C54.4403318,0.357032059 54.5272605,0.249551683 54.5272605,0.249551683 C54.7298429,0.112292341 54.831134,0.0436626701 54.831134,0.0436626701 C55.0932294,0.0145542234 55.2242771,0 55.2242771,0 C55.4927205,0.0469363843 55.6269422,0.0704045764 55.6269422,0.0704045764 C55.9568824,0.187311671 56.1218525,0.245765219 56.1218525,0.245765219 C56.562725,0.46577459 56.7831612,0.575779275 56.7831612,0.575779275 C57.4778766,0.936597799 57.8252342,1.11700706 57.8252342,1.11700706 C58.7249124,1.68426679 59.1747516,1.96789666 59.1747516,1.96789666 C59.9350106,2.56742022 60.3151401,2.867182 60.3151401,2.867182 C61.1132494,3.56460145 61.5123041,3.91331118 61.5123041,3.91331118 C62.3260455,4.75130313 62.7329162,5.1702991 62.7329162,5.1702991 C63.4519922,6.08914785 63.8115302,6.54857222 63.8115302,6.54857222 C64.390711,7.42892524 64.6803014,7.86910176 64.6803014,7.86910176 C65.2218699,8.87527584 65.4926541,9.37836288 65.4926541,9.37836288 C65.9267818,10.3805139 66.1438456,10.8815893 66.1438456,10.8815893 C66.4595027,11.9586019 66.6173313,12.4971081 66.6173313,12.4971081 C66.8076142,13.3409375 66.9027557,13.7628523 66.9027557,13.7628523 C66.9447322,14.6044729 66.9657205,15.0252832 66.9657205,15.0252832 C66.9885735,16.089122 67,16.6210414 67,16.6210414 C66.9596105,17.4297671 66.9394157,17.83413 66.9394157,17.83413 C66.7931724,18.752111 66.7200507,19.2111015 66.7200507,19.2111015 C66.4545433,20.3380481 66.3217896,20.9015213 66.3217896,20.9015213 C66.0218439,21.9262333 65.8718711,22.4385893 65.8718711,22.4385893 C65.5981112,23.3943561 65.4612313,23.8722395 65.4612313,23.8722395 C65.2369068,24.6932712 65.1247446,25.1037871 65.1247446,25.1037871 C64.9083553,26.0966297 64.8001606,26.5930509 64.8001606,26.5930509 C64.5573475,27.9106617 64.4359409,28.5694671 64.4359409,28.5694671 C64.2092359,29.9756654 64.0958835,30.6787646 64.0958835,30.6787646 C63.8542606,32.0031595 63.7334492,32.6653569 63.7334492,32.6653569 C63.6027586,33.8830208 63.5374133,34.4918528 63.5374133,34.4918528 C63.4089445,35.4077039 63.3447101,35.8656295 63.3447101,35.8656295 C63.2380628,37.1041189 63.1847391,37.7233637 63.1847391,37.7233637 C63.0722198,39.1913287 63.0159601,39.9253112 63.0159601,39.9253112 C62.920898,41.285283 62.8733669,41.965269 62.8733669,41.965269 C62.7883823,43.140414 62.74589,43.7279866 62.74589,43.7279866 C62.6975655,45.2821725 62.6734032,46.0592655 62.6734032,46.0592655 C62.6631669,47.6852365 62.6580488,48.498222 62.6580488,48.498222 C62.6435276,50.28496 62.6362671,51.178329 62.6362671,51.178329 C62.6394411,52.9625427 62.6410281,53.8546495 62.6410281,53.8546495 C62.5970678,55.3344472 62.5750877,56.0743461 62.5750877,56.0743461 C62.5393799,57.2868036 62.5215259,57.8930324 62.5215259,57.8930324 C59.7089405,57.8904292 58.3026477,57.8891276 58.3026477,57.8891276 C58.395488,56.638411 58.4419082,56.0130527 58.4419082,56.0130527 C58.4946764,54.9140313 58.5210605,54.3645207 58.5210605,54.3645207 C58.5200289,53.0562183 58.5195132,52.4020671 58.5195132,52.4020671 C58.5099911,51.1179034 58.50523,50.4758215 58.50523,50.4758215 C58.494597,49.2641528 58.4892805,48.6583185 58.4892805,48.6583185 C58.453414,46.9193057 58.4354808,46.0497994 58.4354808,46.0497994 C58.3695403,44.6184368 58.3365701,43.9027556 58.3365701,43.9027556 C58.2474593,42.2340291 58.2029039,41.3996658 58.2029039,41.3996658 C58.1821933,39.7564191 58.1718381,38.9347957 58.1718381,38.9347957 C58.0996289,37.3693292 58.0635244,36.586596 58.0635244,36.586596 C57.9648121,35.0686181 57.915456,34.3096292 57.915456,34.3096292 C57.8667346,33.2044548 57.842374,32.6518676 57.842374,32.6518676 L57.7446536,31.1604739 C57.6426528,30.4901044 57.5916524,30.1549197 57.5916524,30.1549197 Z" id="Path-54-Copy" transform="translate(33.500000, 29.000000) scale(-1, 1) translate(-33.500000, -29.000000) "></path>
        </g>
    </g>
</svg>