<?xml version="1.0" encoding="UTF-8"?>
<svg width="229px" height="221px" viewBox="0 0 229 221" version="1.1" xmlns="http://www.w3.org/2000/svg" xmlns:xlink="http://www.w3.org/1999/xlink">
    <!-- Generator: Sketch 49.1 (51147) - http://www.bohemiancoding.com/sketch -->
    <title>Group 53</title>
    <desc>Created with Sketch.</desc>
    <defs>
        <rect id="path-1" x="63" y="14" width="84" height="157" rx="12"></rect>
        <rect id="path-2" x="71" y="39" width="68" height="99"></rect>
        <rect id="path-3" x="71" y="71.5" width="68" height="33.5"></rect>
        <rect id="path-4" x="79" y="49" width="15" height="15"></rect>
        <rect id="path-5" x="79" y="81" width="15" height="15"></rect>
        <rect id="path-6" x="79" y="113" width="15" height="15"></rect>
    </defs>
    <g id="Page-1" stroke="none" stroke-width="1" fill="none" fill-rule="evenodd">
        <g id="Group-53" transform="translate(1.000000, 0.000000)">
            <circle id="Oval-20" stroke="#9098E7" stroke-width="2" cx="181" cy="117" r="6"></circle>
            <circle id="Oval-20-Copy" stroke="#9098E7" stroke-width="2" cx="210.5" cy="117" r="6"></circle>
            <g id="Rectangle-44">
                <use fill="#EFF1FC" fill-rule="evenodd" xlink:href="#path-1"></use>
                <rect stroke="#9098E7" stroke-width="2" x="64" y="15" width="82" height="155" rx="12"></rect>
            </g>
            <ellipse id="Oval-18" stroke="#9098E7" stroke-width="2" cx="18" cy="83.5" rx="18" ry="18.5"></ellipse>
            <circle id="Oval-19" stroke="#9098E7" stroke-width="2" cx="17.5" cy="83.5" r="11.5"></circle>
            <rect id="Rectangle-41" stroke="#9098E7" stroke-width="2" transform="translate(39.732666, 105.240933) rotate(46.000000) translate(-39.732666, -105.240933) " x="32.2362835" y="101.639268" width="14.9927649" height="7.20332883" rx="3"></rect>
            <path d="M165.539683,74.8528342 L173.851358,77.7353692 L176.238188,84.659229 L224.448062,84.659229 L218.079088,105.637041 L183.069753,105.637041 C182.299551,109.030507 181.91445,110.72724 181.91445,110.72724 C182.580377,107.254553 182.913341,105.518209 182.913341,105.518209 L176.314432,84.8532565" id="Path-114" stroke="#9098E7" stroke-width="2"></path>
            <path d="M205.427443,0.0839841801 L205.427443,13.9134807" id="Path-115" stroke="#9098E7" stroke-width="2"></path>
            <path d="M198.373678,6.9325846 L211.875265,6.9325846" id="Path-116" stroke="#9098E7" stroke-width="2"></path>
            <path d="M217.598999,24.4978421 L217.598999,43.162498" id="Path-117" stroke="#9098E7" stroke-width="2"></path>
            <path d="M208.512338,33.8834067 L227.05248,33.8834067" id="Path-118" stroke="#9098E7" stroke-width="2"></path>
            <path d="M154.945324,33.5975914 C155.957232,32.0748941 156.463187,31.3135455 156.463187,31.3135455 C157.589704,29.7618422 158.152963,28.9859906 158.152963,28.9859906 C159.144355,27.7561832 159.640052,27.1412795 159.640052,27.1412795 C160.729545,26.2034187 161.274292,25.7344883 161.274292,25.7344883 C162.274646,25.008395 162.774822,24.6453483 162.774822,24.6453483 C164.006988,24.09447 164.623071,23.8190309 164.623071,23.8190309 C165.975269,23.336305 166.651369,23.094942 166.651369,23.094942 C167.934707,22.9668911 168.576377,22.9028657 168.576377,22.9028657 C170.051674,22.9118269 170.789323,22.9163075 170.789323,22.9163075 C172.189864,23.2419765 172.890135,23.404811 172.890135,23.404811 C174.044716,23.8224503 174.622006,24.03127 174.622006,24.03127 C175.671174,24.5597452 176.195759,24.8239828 176.195759,24.8239828 C177.125601,25.4507955 177.590523,25.7642018 177.590523,25.7642018 L179.336543,27.5947636 C181.617877,24.5948825 182.758544,23.094942 182.758544,23.094942 C183.246458,25.5694135 183.490415,26.8066493 183.490415,26.8066493 C183.808066,28.7318933 183.966891,29.6945153 183.966891,29.6945153 C184.123005,31.3214455 184.201062,32.1349106 184.201062,32.1349106 C184.338546,33.9497903 184.407287,34.8572302 184.407287,34.8572302 C184.470252,36.3412528 184.501734,37.0832641 184.501734,37.0832641 C184.530504,38.5599762 184.544889,39.2983323 184.544889,39.2983323 C182.832827,38.7656123 181.976797,38.4992523 181.976797,38.4992523 C180.220636,38.152831 179.342556,37.9796203 179.342556,37.9796203 C177.640399,37.7749276 176.789321,37.6725812 176.789321,37.6725812 C175.301761,37.5850915 174.557981,37.5413467 174.557981,37.5413467 C173.039056,37.4963049 172.279594,37.4737839 172.279594,37.4737839 C170.252947,37.4435988 169.239624,37.4285063 169.239624,37.4285063 C170.873629,36.2074243 171.690631,35.5968833 171.690631,35.5968833 C172.629435,34.6066702 173.098837,34.1115637 173.098837,34.1115637 C173.913599,33.087864 174.32098,32.5760141 174.32098,32.5760141 C173.125603,31.6530101 172.527914,31.1915081 172.527914,31.1915081 C171.472143,30.5804954 170.944257,30.2749891 170.944257,30.2749891 C169.852877,29.846502 169.307187,29.6322585 169.307187,29.6322585 C168.118176,29.457515 167.523671,29.3701433 167.523671,29.3701433 C166.451628,29.2975103 165.915607,29.2611939 165.915607,29.2611939 C164.651133,29.3682567 164.018897,29.4217881 164.018897,29.4217881 C162.637456,29.5467733 161.946736,29.6092659 161.946736,29.6092659 C160.784138,29.9620544 160.202839,30.1384486 160.202839,30.1384486 C159.125372,30.7817688 158.586638,31.1034288 158.586638,31.1034288 L156.526505,32.4713095 C155.472384,33.2221641 154.945324,33.5975914 154.945324,33.5975914 Z" id="Path-119" stroke="#9098E7" stroke-width="2"></path>
            <path d="M195.24143,45.7016988 L195.24143,72.7579988" id="Path-120" stroke="#9098E7" stroke-width="2"></path>
            <path d="M181.440121,59.6463678 L208.634615,59.6463678" id="Path-121" stroke="#9098E7" stroke-width="2"></path>
            <path d="M185.654273,91.5449522 L216.109573,91.5449522" id="Path-122" stroke="#9098E7" stroke-width="2"></path>
            <path d="M187.48155,98.2846527 L214.498104,98.2846527" id="Path-123" stroke="#9098E7" stroke-width="2"></path>
            <path d="M30.6460028,96.6919504 L33.7734363,99.8010023" id="Path-124" stroke="#9098E7" stroke-width="2"></path>
            <path d="M31.1563574,38.2351345 C31.0768419,46.9713718 31.0370842,51.3394904 31.0370842,51.3394904 L52.0848178,51.295968 L52.0486949,37.9917429" id="Path-126" stroke="#9098E7" stroke-width="2"></path>
            <polygon id="Path-127" fill="#C9CEFB" points="31.1889109 26.8417367 29.1582258 30.8245414 53.3965773 30.8245414 51.8174754 28.833139 51.6147963 26.8417367"></polygon>
            <path d="M31.0987867,26.6926246 L51.7473819,26.6926246 C51.7473819,28.1643041 51.7473819,28.9001438 51.7473819,28.9001438 C53.4985592,31.0094163 54.3741479,32.0640525 54.3741479,32.0640525 C54.6644805,32.6522468 54.8096467,32.946344 54.8096467,32.946344 C54.9547212,33.4965251 55.0272584,33.7716157 55.0272584,33.7716157 C55.0333185,34.4777059 55.0363485,34.8307511 55.0363485,34.8307511 C54.941591,35.4255564 54.8942123,35.722959 54.8942123,35.722959 C54.4959003,36.3798342 54.2967442,36.7082717 54.2967442,36.7082717 C53.6881661,37.2356817 53.383877,37.4993866 53.383877,37.4993866 C52.601944,37.7977993 52.2109775,37.9470056 52.2109775,37.9470056 C51.6194777,38.1255023 51.3237278,38.2147507 51.3237278,38.2147507 C50.6191066,38.2147507 50.266796,38.2147507 50.266796,38.2147507 C49.7788684,37.9047688 49.5349046,37.7497778 49.5349046,37.7497778 C49.1417344,37.1601144 48.9451493,36.8652827 48.9451493,36.8652827 C48.6138654,36.4666034 48.4482234,36.2672637 48.4482234,36.2672637 C48.1622981,35.4071007 48.0193355,34.9770192 48.0193355,34.9770192 C47.7486523,36.293524 47.6133107,36.9517765 47.6133107,36.9517765 C47.040542,37.5888186 46.7541577,37.9073397 46.7541577,37.9073397 C45.9325587,38.1894085 45.5217593,38.3304429 45.5217593,38.3304429 C44.7524973,38.2922461 44.3678664,38.2731477 44.3678664,38.2731477 C43.7609409,38.2134652 43.4574782,38.1836239 43.4574782,38.1836239 C42.8083159,37.6595195 42.4837347,37.3974672 42.4837347,37.3974672 C41.8494472,35.8295612 41.5323034,35.0456082 41.5323034,35.0456082 C41.2041413,36.4508105 41.0400602,37.1534116 41.0400602,37.1534116 C40.6000622,37.7199365 40.3800632,38.003199 40.3800632,38.003199 C39.7184135,38.3388903 39.3875886,38.506736 39.3875886,38.506736 C38.720797,38.584966 38.3874012,38.624081 38.3874012,38.624081 C37.720426,38.53924 37.3869383,38.4968195 37.3869383,38.4968195 C36.8213316,38.0637998 36.5385282,37.8472899 36.5385282,37.8472899 C36.1097321,37.267543 35.8953341,36.9776695 35.8953341,36.9776695 C35.5836995,36.3577057 35.4278822,36.0477238 35.4278822,36.0477238 C35.263342,35.2409996 35.1810719,34.8376375 35.1810719,34.8376375 C34.6988371,36.2850767 34.4577196,37.0087962 34.4577196,37.0087962 C33.9444499,37.5881759 33.687815,37.8778657 33.687815,37.8778657 C32.8001062,38.122105 32.3562518,38.2442246 32.3562518,38.2442246 C31.7070895,38.2442246 31.3825083,38.2442246 31.3825083,38.2442246 C30.7054329,38.179033 30.3668953,38.1464371 30.3668953,38.1464371 C29.6580504,37.8103785 29.303628,37.6423493 29.303628,37.6423493 C28.8841975,37.153687 28.6744823,36.9093559 28.6744823,36.9093559 C28.3310782,36.1659871 28.1593761,35.7943026 28.1593761,35.7943026 C28.1050191,35.0334881 28.0778406,34.6530808 28.0778406,34.6530808 C28.0778406,34.0255878 28.0778406,33.7118413 28.0778406,33.7118413 C28.2912286,33.0419279 28.3979226,32.7069711 28.3979226,32.7069711 L28.8813511,31.5200233 L31.0987867,26.6926246 Z" id="Path-125" stroke="#9098E7" stroke-width="2"></path>
            <path d="M34.8843351,51.3706706 C34.8843351,46.0910152 34.8843351,43.4511875 34.8843351,43.4511875 C35.0466093,43.0775254 35.1277464,42.8906944 35.1277464,42.8906944 C35.2623766,42.6715142 35.3296917,42.5619241 35.3296917,42.5619241 C35.5752205,42.3094473 35.6979848,42.1832089 35.6979848,42.1832089 C36.0911376,42.0236739 36.287714,41.9439064 36.287714,41.9439064 L36.9951994,41.7891989 C44.0100481,41.7891989 47.5174725,41.7891989 47.5174725,41.7891989 C47.7456762,42.0497968 47.859778,42.1800958 47.859778,42.1800958 C47.9979274,42.452334 48.0670021,42.5884531 48.0670021,42.5884531 C48.1571466,42.8499534 48.2022188,42.9807035 48.2022188,42.9807035 L48.2809938,43.4601207 L48.2809938,51.3706706" id="Path-128" stroke="#9098E7" stroke-width="2"></path>
            <g id="Rectangle-45">
                <use fill="#DCDFFF" fill-rule="evenodd" xlink:href="#path-2"></use>
                <rect stroke="#9098E7" stroke-width="2" x="72" y="40" width="66" height="97"></rect>
            </g>
            <g id="Rectangle-47">
                <use fill="#A8B0F3" fill-rule="evenodd" xlink:href="#path-3"></use>
                <rect stroke="#9098E7" stroke-width="2" x="72" y="72.5" width="66" height="31.5"></rect>
            </g>
            <g id="Rectangle-46">
                <use fill="#EFF1FC" fill-rule="evenodd" xlink:href="#path-4"></use>
                <rect stroke="#9098E7" stroke-width="2" x="80" y="50" width="13" height="13"></rect>
            </g>
            <g id="Rectangle-46-Copy">
                <use fill="#EFF1FC" fill-rule="evenodd" xlink:href="#path-5"></use>
                <rect stroke="#9098E7" stroke-width="2" x="80" y="82" width="13" height="13"></rect>
            </g>
            <g id="Rectangle-46-Copy-2">
                <use fill="#EFF1FC" fill-rule="evenodd" xlink:href="#path-6"></use>
                <rect stroke="#9098E7" stroke-width="2" x="80" y="114" width="13" height="13"></rect>
            </g>
            <path d="M99.8616473,54.8734341 L116.463451,54.8734341" id="Path-129" stroke="#9098E7" stroke-width="2"></path>
            <path d="M99.9212458,62.2645552 L126.190654,62.2645552" id="Path-130" stroke="#9098E7" stroke-width="2"></path>
            <path d="M99.9898744,87.3094843 L116.508601,87.3094843" id="Path-131" stroke="#9098E7" stroke-width="2"></path>
            <path d="M99.7388382,94.8008393 L111.6152,94.8008393" id="Path-132" stroke="#9098E7" stroke-width="2"></path>
            <path d="M99.8643563,118.82266 L110.628213,118.82266" id="Path-133" stroke="#9098E7" stroke-width="2"></path>
            <path d="M99.9212458,126.405219 L110.652594,126.405219" id="Path-134" stroke="#9098E7" stroke-width="2"></path>
            <path d="M93.8860697,27.4440379 L115.492857,27.4440379" id="Path-135" stroke="#9098E7" stroke-width="2"></path>
            <path d="M186.995866,117.159375 L204.480638,117.159375" id="Path-108" stroke="#9098E7" stroke-width="2"></path>
            <path d="M90.121237,151.02093 L90.121237,187.374145 L117.883051,214.253827 C119.069985,215.246401 119.663452,215.742687 119.663452,215.742687 C120.847223,216.408678 121.439108,216.741674 121.439108,216.741674 C122.663941,217.371093 123.276358,217.685803 123.276358,217.685803 C124.126705,218.131294 124.551878,218.354039 124.551878,218.354039 C125.446282,218.720826 125.893484,218.90422 125.893484,218.90422 C127.018013,219.148887 127.580277,219.271221 127.580277,219.271221 C129.354542,219.383716 130.241675,219.439964 130.241675,219.439964 L136.573402,219.544867 C159.763322,219.544867 171.358281,219.544867 171.358281,219.544867 C172.330534,219.361581 172.816661,219.269937 172.816661,219.269937 C174.050263,218.843908 174.667064,218.630894 174.667064,218.630894 C175.873076,218.041468 176.476083,217.746756 176.476083,217.746756 C177.866024,216.928917 178.560994,216.519997 178.560994,216.519997 C179.906664,215.478451 180.579499,214.957677 180.579499,214.957677 C181.90592,213.856675 182.569131,213.306174 182.569131,213.306174 C183.749479,212.056745 184.339653,211.432031 184.339653,211.432031 C185.434668,210.056206 185.982175,209.368293 185.982175,209.368293 C186.854764,207.730691 187.291059,206.911889 187.291059,206.911889 C187.842416,205.355985 188.118094,204.578033 188.118094,204.578033 C188.37153,203.144035 188.498248,202.427036 188.498248,202.427036 C188.746551,200.645927 188.870702,199.755373 188.870702,199.755373 C188.969938,196.325326 189.019556,194.610303 189.019556,194.610303 C189.074948,176.2254 189.102644,167.032948 189.102644,167.032948 C189.102431,151.25127 189.102324,143.36043 189.102324,143.36043 C188.859153,142.238683 188.737568,141.677809 188.737568,141.677809 C188.29721,140.696145 188.077031,140.205314 188.077031,140.205314 C187.531877,139.54082 187.259299,139.208573 187.259299,139.208573 C186.561014,138.460456 186.211871,138.086397 186.211871,138.086397 C185.44365,137.504029 185.05954,137.212845 185.05954,137.212845 C184.169199,136.865734 183.724029,136.692179 183.724029,136.692179 C182.875179,136.516806 182.450754,136.429119 182.450754,136.429119 C181.642967,136.311277 181.239074,136.252355 181.239074,136.252355 C180.447969,136.265188 180.052416,136.271604 180.052416,136.271604 C179.236502,136.344319 178.828545,136.380677 178.828545,136.380677 C178.046851,136.670257 177.656003,136.815047 177.656003,136.815047 C176.831535,137.196805 176.4193,137.387684 176.4193,137.387684 C175.710535,137.909099 175.356153,138.169807 175.356153,138.169807 C174.708768,138.797943 174.385076,139.112011 174.385076,139.112011 C173.859598,139.786556 173.596858,140.123829 173.596858,140.123829 C173.318614,140.779555 173.179491,141.107417 173.179491,141.107417 L172.923168,142.018183 C169.97989,142.018183 168.50825,142.018183 168.50825,142.018183 C168.791628,140.583971 168.933317,139.866865 168.933317,139.866865 C169.015871,138.650158 169.057148,138.041805 169.057148,138.041805 C169.057148,136.791094 169.057148,136.165738 169.057148,136.165738 C168.961762,135.129966 168.914069,134.61208 168.914069,134.61208 C168.65165,133.571816 168.520441,133.051684 168.520441,133.051684 C168.061476,132.200482 167.831994,131.774881 167.831994,131.774881 C167.235938,130.923464 166.93791,130.497756 166.93791,130.497756 C166.323034,129.87347 166.015596,129.561327 166.015596,129.561327 C165.396656,129.021733 165.087186,128.751936 165.087186,128.751936 C164.296509,128.26752 163.901171,128.025313 163.901171,128.025313 C163.102794,127.747282 162.703606,127.608266 162.703606,127.608266 C161.897958,127.476095 161.495134,127.410009 161.495134,127.410009 C160.599018,127.376859 160.150961,127.360284 160.150961,127.360284 C159.282863,127.426798 158.848814,127.460054 158.848814,127.460054 C157.934947,127.707074 157.478014,127.830584 157.478014,127.830584 C156.702522,128.237579 156.314775,128.441076 156.314775,128.441076 C155.582698,128.921428 155.21666,129.161604 155.21666,129.161604 C154.513669,129.725365 154.162174,130.007246 154.162174,130.007246 C153.618517,130.698473 153.346688,131.044087 153.346688,131.044087 C152.903336,131.917532 152.681659,132.354255 152.681659,132.354255 C152.448755,133.387246 152.332303,133.903742 152.332303,133.903742 C152.21553,135.050085 152.157143,135.623257 152.157143,135.623257 C152.196923,136.846165 152.216813,137.45762 152.216813,137.45762 C152.258304,138.581292 152.279049,139.143129 152.279049,139.143129 C152.3338,140.463134 152.361175,141.123137 152.361175,141.123137 L152.40288,142.196871 C149.05667,142.077745 147.383566,142.018183 147.383566,142.018183 C147.693677,139.764849 147.848733,138.638182 147.848733,138.638182 C147.994806,136.811946 148.067843,135.898828 148.067843,135.898828 C148.115322,134.318543 148.139061,133.528401 148.139061,133.528401 C148.139061,132.078362 148.139061,131.353343 148.139061,131.353343 C148.113183,129.943512 148.100244,129.238597 148.100244,129.238597 C147.995875,127.858922 147.943691,127.169084 147.943691,127.169084 C147.706296,125.897627 147.587598,125.261899 147.587598,125.261899 C146.955612,124.25286 146.639619,123.748341 146.639619,123.748341 C145.978547,122.899064 145.648011,122.474425 145.648011,122.474425 C144.718318,121.638407 144.253472,121.220398 144.253472,121.220398 C143.468355,120.712457 143.075797,120.458486 143.075797,120.458486 C142.044088,120.269212 141.528234,120.174574 141.528234,120.174574 C140.647517,120.160245 140.207159,120.15308 140.207159,120.15308 C139.227421,120.12656 138.737552,120.1133 138.737552,120.1133 C137.729797,120.262795 137.225919,120.337543 137.225919,120.337543 C136.369584,120.644874 135.941416,120.79854 135.941416,120.79854 C135.180467,121.224569 134.799992,121.437583 134.799992,121.437583 C134.071765,122.183348 133.707651,122.55623 133.707651,122.55623 C133.181531,123.23099 132.918471,123.56837 132.918471,123.56837 C132.402189,124.344076 132.144048,124.731929 132.144048,124.731929 C131.844844,125.873995 131.695242,126.445028 131.695242,126.445028 C131.506822,127.711565 131.412613,128.344834 131.412613,128.344834 C131.313591,129.650938 131.26408,130.30399 131.26408,130.30399 C131.294236,131.695642 131.309313,132.391468 131.309313,132.391468 C131.37818,133.933256 131.412613,134.704151 131.412613,134.704151 C131.450895,136.297696 131.470037,137.094468 131.470037,137.094468 C131.515163,138.409982 131.537726,139.06774 131.537726,139.06774 C131.537726,140.036143 131.537726,140.520344 131.537726,140.520344 C131.339683,141.119394 131.240661,141.418919 131.240661,141.418919 C130.678397,141.700372 130.397265,141.841098 130.397265,141.841098 C129.866654,141.983108 129.601348,142.054113 129.601348,142.054113 C129.032454,142.066731 128.748007,142.07304 128.748007,142.07304 C128.250759,142.060208 128.002135,142.053792 128.002135,142.053792 C127.733728,141.618994 127.599525,141.401595 127.599525,141.401595 C127.488313,140.572636 127.432706,140.158156 127.432706,140.158156 C127.53237,119.110999 127.582202,108.58742 127.582202,108.58742 C127.540497,104.22597 127.519645,102.045245 127.519645,102.045245 C127.192424,100.776996 127.028813,100.142872 127.028813,100.142872 C126.577334,99.3494144 126.351594,98.9526856 126.351594,98.9526856 C125.840872,98.1583726 125.585512,97.7612161 125.585512,97.7612161 C124.952884,97.0588671 124.636571,96.7076926 124.636571,96.7076926 C124.131837,96.1954741 123.879471,95.9393648 123.879471,95.9393648 C123.169209,95.4339901 122.814078,95.1813027 122.814078,95.1813027 C121.776808,94.8205041 121.258174,94.6401048 121.258174,94.6401048 C120.220904,94.6123017 119.70227,94.5984001 119.70227,94.5984001 C118.818131,94.5984001 118.376062,94.5984001 118.376062,94.5984001 C117.570414,94.6818094 117.16759,94.7235141 117.16759,94.7235141 C116.299278,95.0026144 115.865122,95.1421645 115.865122,95.1421645 C115.1339,95.5938579 114.76829,95.8197045 114.76829,95.8197045 C114.026375,96.2940681 113.655417,96.5312499 113.655417,96.5312499 C112.992207,97.152756 112.660601,97.4635091 112.660601,97.4635091 C112.06754,98.1744128 111.771009,98.5298647 111.771009,98.5298647 C111.430742,99.307282 111.260609,99.6959907 111.260609,99.6959907 C110.989421,101.08529 110.853828,101.77994 110.853828,101.77994 L111.003323,151.318639 C111.003323,173.214004 111.003323,184.161686 111.003323,184.161686 C109.357594,182.630163 108.534729,181.864402 108.534729,181.864402 C107.40079,180.546963 106.833821,179.888244 106.833821,179.888244 C106.921508,167.927352 106.965351,161.946906 106.965351,161.946906 C106.761533,160.540711 106.659624,159.837614 106.659624,159.837614 C106.095435,158.482106 105.813341,157.804352 105.813341,157.804352 C105.156974,156.832955 104.82879,156.347256 104.82879,156.347256 C103.988923,155.323247 103.568989,154.811242 103.568989,154.811242 C102.855305,154.022276 102.498463,153.627793 102.498463,153.627793 C101.433605,152.747504 100.901175,152.307359 100.901175,152.307359 C99.9252867,151.790008 99.4373424,151.531332 99.4373424,151.531332 C98.0529622,151.229348 97.360772,151.078356 97.360772,151.078356 L94.2537762,150.971207 L90.121237,151.02093 Z" id="Path-113" stroke="#9098E7" stroke-width="2" fill="#EFF1FC"></path>
        </g>
    </g>
</svg>