<?xml version="1.0" encoding="UTF-8"?>
<svg width="149px" height="134px" viewBox="0 0 149 134" version="1.1" xmlns="http://www.w3.org/2000/svg" xmlns:xlink="http://www.w3.org/1999/xlink">
    <!-- Generator: Sketch 49 (51002) - http://www.bohemiancoding.com/sketch -->
    <title>Group 14</title>
    <desc>Created with Sketch.</desc>
    <defs></defs>
    <g id="Page-1" stroke="none" stroke-width="1" fill="none" fill-rule="evenodd">
        <g id="Artboard-3" transform="translate(-646.000000, -2940.000000)" stroke="#606061">
            <g id="Group-14" transform="translate(647.000000, 2942.000000)">
                <path d="M73.2506721,129.151772 C32.5836723,88.5737909 12.2501725,68.2848006 12.2501725,68.2848006 C11.4033392,67.2586012 10.9799225,66.7455016 10.9799225,66.7455016 C10.3611729,65.9629419 10.0517981,65.5716621 10.0517981,65.5716621 C9.32622641,64.5545075 8.96344055,64.0459302 8.96344055,64.0459302 C8.23469983,62.9488031 7.87032947,62.4002395 7.87032947,62.4002395 C7.20021547,61.3547419 6.86515847,60.8319931 6.86515847,60.8319931 C6.1506783,59.579046 5.79343822,58.9525725 5.79343822,58.9525725 C5.17178369,57.7834568 4.86095643,57.198899 4.86095643,57.198899 C4.30915221,56.0641142 4.03325011,55.4967219 4.03325011,55.4967219 C3.49068884,54.3539532 3.21940821,53.7825689 3.21940821,53.7825689 C2.85738662,52.5083578 2.67637583,51.8712523 2.67637583,51.8712523 C2.20673001,50.5683137 1.9719071,49.9168444 1.9719071,49.9168444 C1.61447882,48.4816511 1.43576469,47.7640544 1.43576469,47.7640544 C1.14372204,46.4299514 0.997700722,45.7628999 0.997700722,45.7628999 C0.882691555,44.6425264 0.825186972,44.0823396 0.825186972,44.0823396 C0.789719292,43.0915331 0.771985452,42.5961298 0.771985452,42.5961298 C0.729737187,41.5669525 0.708613054,41.0523639 0.708613054,41.0523639 C0.708613054,39.9764058 0.708613054,39.4384268 0.708613054,39.4384268 C0.708613054,38.4912473 0.708613054,38.0176575 0.708613054,38.0176575 C0.708613054,37.0144987 0.708613054,36.5129194 0.708613054,36.5129194 C0.708613054,35.5292088 0.708613054,35.0373535 0.708613054,35.0373535 C0.889080953,34.1490442 0.979314903,33.7048896 0.979314903,33.7048896 C1.11988166,32.6743982 1.19016504,32.1591525 1.19016504,32.1591525 C1.4225305,31.3213034 1.53871323,30.9023788 1.53871323,30.9023788 C1.86600689,29.7191929 2.02965372,29.1275999 2.02965372,29.1275999 C2.34964521,27.9780541 2.50964096,27.4032812 2.50964096,27.4032812 C2.99314888,26.1606994 3.23490285,25.5394085 3.23490285,25.5394085 C3.58801489,24.4831615 3.76457091,23.9550379 3.76457091,23.9550379 C4.31849261,22.7842042 4.59545347,22.1987874 4.59545347,22.1987874 C5.37861112,20.6421436 5.77018995,19.8638217 5.77018995,19.8638217 C6.49962451,18.7460763 6.86434179,18.1872036 6.86434179,18.1872036 C7.56222054,17.0938998 7.91115992,16.547248 7.91115992,16.547248 C8.7884634,15.4778602 9.22711515,14.9431664 9.22711515,14.9431664 C10.131541,13.8566958 10.5837539,13.3134604 10.5837539,13.3134604 C11.6133598,12.2214708 12.1281627,11.6754759 12.1281627,11.6754759 C13.1762848,10.7330271 13.7003458,10.2618026 13.7003458,10.2618026 C14.7891514,9.29937994 15.3335542,8.8181686 15.3335542,8.8181686 C16.5352827,7.93117336 17.1361469,7.48767574 17.1361469,7.48767574 C18.3509149,6.63432063 18.9582989,6.20764307 18.9582989,6.20764307 C20.3172848,5.41000439 20.9967777,5.01118505 20.9967777,5.01118505 C22.1878137,4.4553347 22.7833317,4.17740953 22.7833317,4.17740953 C24.11676,3.65046866 24.7834741,3.38699822 24.7834741,3.38699822 C26.1082963,2.88555025 26.7707073,2.63482626 26.7707073,2.63482626 C28.2081915,2.17253748 28.9269336,1.9413931 28.9269336,1.9413931 C30.4126643,1.61024821 31.1555296,1.44467577 31.1555296,1.44467577 C32.6610804,1.23258535 33.4138559,1.12654014 33.4138559,1.12654014 C34.5634259,0.97121742 35.138211,0.893556059 35.138211,0.893556059 C36.4473856,0.804462316 37.101973,0.759915444 37.101973,0.759915444 C38.633603,0.731531596 39.399418,0.717339673 39.399418,0.717339673 C40.9054904,0.738101931 41.6585266,0.748483061 41.6585266,0.748483061 C43.2931694,0.780020669 44.1104907,0.795789473 44.1104907,0.795789473 C45.3672462,0.855448116 45.995624,0.885277437 45.995624,0.885277437 C47.2169118,1.04296548 47.8275557,1.1218095 47.8275557,1.1218095 C49.0725756,1.43928809 49.6950855,1.59802739 49.6950855,1.59802739 C50.8762114,1.93731949 51.4667744,2.10696554 51.4667744,2.10696554 C52.6489434,2.44205263 53.2400279,2.60959617 53.2400279,2.60959617 C54.436019,3.07214776 55.0340145,3.30342356 55.0340145,3.30342356 C56.4104734,3.88029898 57.0987028,4.16873669 57.0987028,4.16873669 C58.1645588,4.70671572 58.6974867,4.97570524 58.6974867,4.97570524 C59.8397546,5.69397427 60.4108886,6.05310879 60.4108886,6.05310879 C61.570108,6.79187726 62.1497177,7.1612615 62.1497177,7.1612615 C63.286509,7.998585 63.8549046,8.41724675 63.8549046,8.41724675 C64.8907695,9.24747429 65.4087019,9.66258806 65.4087019,9.66258806 C66.4075344,10.6026716 66.9069506,11.0727134 66.9069506,11.0727134 C68.0333102,12.1557674 68.59649,12.6972944 68.59649,12.6972944 C69.4878763,13.5890203 69.9335694,14.0348832 69.9335694,14.0348832 C70.8732021,14.9870562 71.3430184,15.4631427 71.3430184,15.4631427 C72.2810864,16.9109817 72.7501204,17.6349012 72.7501204,17.6349012 C73.5843932,16.4730032 74.0015297,15.8920541 74.0015297,15.8920541 C75.0329611,14.5314692 75.5486768,13.8511767 75.5486768,13.8511767 C76.3944245,12.9460473 76.8172983,12.4934826 76.8172983,12.4934826 C77.9389637,11.4537928 78.4997964,10.9339479 78.4997964,10.9339479 C79.6287639,10.0443245 80.1932477,9.59951284 80.1932477,9.59951284 C81.5274583,8.55798333 82.1945636,8.03721857 82.1945636,8.03721857 C83.4599253,7.13471734 84.0926061,6.68346673 84.0926061,6.68346673 C85.2565197,6.07899591 85.8384765,5.77676049 85.8384765,5.77676049 C87.102795,5.08740094 87.7349542,4.74272116 87.7349542,4.74272116 C89.1492279,4.00263862 89.8563648,3.63259734 89.8563648,3.63259734 C91.3199282,2.92405241 92.0517098,2.56977994 92.0517098,2.56977994 C93.4748505,2.09172236 94.1864208,1.85269357 94.1864208,1.85269357 C95.7511714,1.35571343 96.5335467,1.10722336 96.5335467,1.10722336 C98.195051,0.805250756 99.0258031,0.654264456 99.0258031,0.654264456 C100.76059,0.505774883 101.627983,0.431530097 101.627983,0.431530097 C103.377374,0.381069924 104.25207,0.355839837 104.25207,0.355839837 C105.774312,0.301174649 106.535432,0.273842055 106.535432,0.273842055 C108.268654,0.269637041 109.135265,0.267534534 109.135265,0.267534534 L111.79808,0.338099932 C113.428289,0.548876281 114.243394,0.654264456 114.243394,0.654264456 C115.843612,1.0080113 116.643721,1.18488472 116.643721,1.18488472 C118.363903,1.80591279 119.223995,2.11642682 119.223995,2.11642682 C120.743107,2.74481367 121.502663,3.05900709 121.502663,3.05900709 C123.121397,3.93286166 123.930764,4.36978894 123.930764,4.36978894 C125.367205,5.23207971 126.085426,5.6632251 126.085426,5.6632251 C127.575329,6.5612585 128.320281,7.0102752 128.320281,7.0102752 C129.894159,8.18005765 130.681098,8.76494888 130.681098,8.76494888 C132.170741,9.97441616 132.915562,10.5791498 132.915562,10.5791498 C134.144674,11.7037284 134.759229,12.2660176 134.759229,12.2660176 C136.135688,13.759849 136.823918,14.5067647 136.823918,14.5067647 C138.041555,16.1885077 138.650373,17.0293792 138.650373,17.0293792 C139.71336,18.908495 140.244854,19.8480529 140.244854,19.8480529 C141.183183,21.6451709 141.652347,22.54373 141.652347,22.54373 C142.48662,24.4638447 142.903756,25.4239021 142.903756,25.4239021 C143.760457,27.9208922 144.188808,29.1693873 144.188808,29.1693873 C144.819402,31.6684799 145.134699,32.9180262 145.134699,32.9180262 C145.406184,35.2765137 145.541926,36.4557575 145.541926,36.4557575 C145.591476,38.6489353 145.616251,39.7455242 145.616251,39.7455242 C145.548706,42.0685319 145.514934,43.2300357 145.514934,43.2300357 C145.287262,45.3872081 145.173427,46.4657943 145.173427,46.4657943 C144.756421,48.738079 144.547918,49.8742214 144.547918,49.8742214 C143.874293,51.8595138 143.53748,52.85216 143.53748,52.85216 C142.790833,54.7315387 142.41751,55.671228 142.41751,55.671228 C141.377733,57.7366785 140.857845,58.7694038 140.857845,58.7694038 C139.69367,60.5473365 139.111583,61.4363028 139.111583,61.4363028 C137.843353,63.145904 137.209238,64.0007046 137.209238,64.0007046 C133.966292,67.6595928 132.344819,69.4890369 132.344819,69.4890369 C123.193897,78.9505822 118.618436,83.6813549 118.618436,83.6813549 L98.0380543,104.057015 L73.2506721,129.151772 Z" id="Path-26" stroke-width="3" fill="#99A4ED"></path>
                <path d="M73.1865512,116.252209 C36.4225285,79.3808536 18.0405171,60.9451761 18.0405171,60.9451761 C16.9847323,59.6966941 16.4568399,59.0724531 16.4568399,59.0724531 C15.4820951,57.8012784 14.9947227,57.1656911 14.9947227,57.1656911 C14.3341963,56.0397128 14.0039331,55.4767237 14.0039331,55.4767237 C13.3793728,54.3114621 13.0670927,53.7288314 13.0670927,53.7288314 C12.4965891,52.5544543 12.2113374,51.9672658 12.2113374,51.9672658 C11.8366012,51.0281548 11.6492331,50.5585993 11.6492331,50.5585993 C11.2701896,49.5736939 11.0806678,49.0812412 11.0806678,49.0812412 C10.6986092,47.9374661 10.5075799,47.3655786 10.5075799,47.3655786 C10.2861841,46.4123603 10.1754861,45.9357512 10.1754861,45.9357512 C10.0382982,44.9703789 9.96970428,44.4876928 9.96970428,44.4876928 C9.81571786,43.4975786 9.73872465,43.0025215 9.73872465,43.0025215 C9.67346887,42.1265677 9.64084098,41.6885908 9.64084098,41.6885908 C9.59755249,40.7540376 9.57590824,40.286761 9.57590824,40.286761 C9.57590824,39.5316958 9.57590824,39.1541632 9.57590824,39.1541632 C9.64137939,38.2990448 9.67411496,37.8714856 9.67411496,37.8714856 C9.75121586,37.0625957 9.7897663,36.6581508 9.7897663,36.6581508 C9.98639512,35.7837162 10.0847095,35.346499 10.0847095,35.346499 C10.2462337,34.4757541 10.3269958,34.0403816 10.3269958,34.0403816 C10.4710754,33.1323067 10.5431153,32.6782692 10.5431153,32.6782692 C10.7434053,31.8570083 10.8435503,31.4463778 10.8435503,31.4463778 C11.072484,30.6639662 11.1869508,30.2727604 11.1869508,30.2727604 C11.4328983,29.6299024 11.5558721,29.3084733 11.5558721,29.3084733 C11.8519998,28.5757628 12.0000637,28.2094075 12.0000637,28.2094075 C12.4185191,26.9184826 12.6277468,26.2730201 12.6277468,26.2730201 C13.2122491,25.4584873 13.5045002,25.0512209 13.5045002,25.0512209 C14.2093919,23.6593746 14.5618378,22.9634515 14.5618378,22.9634515 C15.3281087,21.9297132 15.7112441,21.4128441 15.7112441,21.4128441 C16.373278,20.6760098 16.704295,20.3075927 16.704295,20.3075927 C17.6355359,19.4203531 18.1011564,18.9767333 18.1011564,18.9767333 C18.8715192,18.1624175 19.2567007,17.7552596 19.2567007,17.7552596 C20.3832782,16.7534255 20.946567,16.2525085 20.946567,16.2525085 C22.1724281,15.3335817 22.7853587,14.8741184 22.7853587,14.8741184 C24.192773,14.0541597 24.8964802,13.6441803 24.8964802,13.6441803 C26.2995872,12.9051757 27.0011408,12.5356734 27.0011408,12.5356734 C28.2431543,11.9553215 28.8641611,11.6651456 28.8641611,11.6651456 C30.0443647,11.2753505 30.6344665,11.0804529 30.6344665,11.0804529 C31.7914106,10.6505064 32.3698827,10.4355331 32.3698827,10.4355331 C33.479231,10.10781 34.0339052,9.94394852 34.0339052,9.94394852 C35.1955873,9.73993551 35.7764284,9.637929 35.7764284,9.637929 C37.1732898,9.47732301 37.8717205,9.39702001 37.8717205,9.39702001 C39.2817193,9.38247866 39.9867186,9.37520798 39.9867186,9.37520798 C41.3026026,9.3895323 41.9605446,9.39669446 41.9605446,9.39669446 C43.5757867,9.56967145 44.3834078,9.65615995 44.3834078,9.65615995 C45.8226963,9.86863734 46.5423405,9.97487603 46.5423405,9.97487603 C48.0537764,10.3607645 48.8094944,10.5537087 48.8094944,10.5537087 C50.1688822,11.0099165 50.8485761,11.2380204 50.8485761,11.2380204 C52.1987032,11.8092569 52.8737668,12.0948751 52.8737668,12.0948751 C54.2378926,12.8288879 54.9199555,13.1958943 54.9199555,13.1958943 C56.1718759,13.9861192 56.7978361,14.3812316 56.7978361,14.3812316 C57.9397046,15.2875703 58.5106389,15.7407396 58.5106389,15.7407396 C59.8123087,16.904916 60.4631436,17.4870042 60.4631436,17.4870042 C61.811117,18.6689775 62.4851038,19.2599642 62.4851038,19.2599642 C63.8412611,20.5456802 64.5193397,21.1885383 64.5193397,21.1885383 C65.9342919,22.6550446 66.641768,23.3882978 66.641768,23.3882978 L68.6504831,25.4138866 C71.6745285,28.4102735 73.1865512,29.9084669 73.1865512,29.9084669 C77.2523421,25.6315728 79.2852376,23.4931257 79.2852376,23.4931257 C81.1464273,21.5808293 82.0770221,20.624681 82.0770221,20.624681 C83.5841507,19.1188913 84.3377151,18.3659965 84.3377151,18.3659965 C86.0662395,16.8625942 86.9305018,16.110893 86.9305018,16.110893 C88.5502666,14.955181 89.3601491,14.377325 89.3601491,14.377325 C90.9454554,13.3342542 91.7381086,12.8127188 91.7381086,12.8127188 C93.199149,12.1058354 93.9296691,11.7523937 93.9296691,11.7523937 C95.4635031,11.0771974 96.2304201,10.7395993 96.2304201,10.7395993 C97.6087601,10.2983669 98.2979301,10.0777507 98.2979301,10.0777507 C99.4120164,9.80450346 99.9690596,9.66787985 99.9690596,9.66787985 C101.212365,9.48361703 101.834018,9.39148562 101.834018,9.39148562 C103.419971,9.29164946 104.212947,9.24173138 104.212947,9.24173138 C105.701554,9.19897546 106.445858,9.1775975 106.445858,9.1775975 C107.96397,9.19344107 108.723026,9.20136285 108.723026,9.20136285 C110.133671,9.30836116 110.838993,9.36186032 110.838993,9.36186032 C112.488048,9.68719597 113.312575,9.8498638 113.312575,9.8498638 C114.619198,10.2114443 115.27251,10.3922346 115.27251,10.3922346 C116.57418,10.9131189 117.225015,11.173561 117.225015,11.173561 C118.558559,11.7890726 119.225331,12.0968284 119.225331,12.0968284 C120.473805,12.7761484 121.098042,13.1158083 121.098042,13.1158083 C122.52484,13.966369 123.238238,14.3916493 123.238238,14.3916493 C124.559722,15.3613622 125.220463,15.8462187 125.220463,15.8462187 C126.314736,16.7393182 126.861873,17.185868 126.861873,17.185868 C127.809697,18.137567 128.283609,18.6134165 128.283609,18.6134165 C129.070555,19.6473719 129.464028,20.1643495 129.464028,20.1643495 C130.184856,21.1668348 130.545271,21.6680774 130.545271,21.6680774 C131.463805,23.0393053 131.923072,23.7249192 131.923072,23.7249192 C132.598674,24.9149228 132.936475,25.5099246 132.936475,25.5099246 C133.769294,27.3008984 134.185704,28.1963854 134.185704,28.1963854 C134.73704,29.7032602 135.012708,30.4566977 135.012708,30.4566977 C135.337048,32.0588509 135.499219,32.8599276 135.499219,32.8599276 C135.766272,34.5074412 135.899799,35.331198 135.899799,35.331198 C136.011789,37.1111031 136.067784,38.0010556 136.067784,38.0010556 C136.140793,40.0383643 136.177297,41.0570186 136.177297,41.0570186 C136.100627,42.6454987 136.062292,43.4397387 136.062292,43.4397387 C135.927258,44.9809052 135.859741,45.7514884 135.859741,45.7514884 C135.51774,47.1140349 135.34674,47.7953081 135.34674,47.7953081 C134.804018,49.3388619 134.532658,50.1106388 134.532658,50.1106388 C133.995751,51.5346063 133.727298,52.24659 133.727298,52.24659 C132.792611,53.8556884 132.325268,54.6602376 132.325268,54.6602376 C131.153463,56.4373212 130.567561,57.325863 130.567561,57.325863 C127.816265,60.5410213 126.440617,62.1486004 126.440617,62.1486004 L111.119722,77.9489745 C85.8309416,103.484464 73.1865512,116.252209 73.1865512,116.252209 Z" id="Path-27" stroke-width="3" fill="#FFFFFF"></path>
                <path d="M41.6570822,71.9948495 C31.0926547,61.1020647 25.8104409,55.6556723 25.8104409,55.6556723 C24.7089784,54.4196812 24.1582472,53.8016856 24.1582472,53.8016856 C23.2222627,52.7701603 22.7542704,52.2543976 22.7542704,52.2543976 C22.1148685,51.1174207 21.7951676,50.5489322 21.7951676,50.5489322 C21.2026106,49.6927509 20.9063321,49.2646602 20.9063321,49.2646602 C20.5379612,48.3014945 20.3537757,47.8199117 20.3537757,47.8199117 C20.1116426,46.8864809 19.990576,46.4197655 19.990576,46.4197655 C19.8901942,45.6671965 19.8400032,45.290912 19.8400032,45.290912 L19.6068436,44.1560809" id="Path-28" stroke-width="2"></path>
                <path d="M19.1355053,38.8966812 C19.15619,37.9595718 19.1665324,37.4910172 19.1665324,37.4910172 C19.1665324,36.703502 19.1665324,36.3097444 19.1665324,36.3097444 C19.2428834,35.6402492 19.2810589,35.3055016 19.2810589,35.3055016 L19.428894,34.0993987" id="Path-29" stroke-width="2"></path>
                <path d="M21.7764601,29.6295067 C22.3811846,28.4189589 22.6835468,27.8136849 22.6835468,27.8136849 C23.4230263,26.7561033 23.7927661,26.2273124 23.7927661,26.2273124 C24.5498884,25.2807002 24.9284496,24.807394 24.9284496,24.807394 C25.8145475,23.8289011 26.2575964,23.3396546 26.2575964,23.3396546 C27.4101623,22.4693722 27.9864453,22.0342309 27.9864453,22.0342309 C29.1584793,21.329483 29.7444962,20.9771091 29.7444962,20.9771091 C30.9606374,20.1157165 31.5687079,19.6850202 31.5687079,19.6850202 C32.7100189,19.113926 33.2806745,18.828379 33.2806745,18.828379 C34.5354474,18.3845012 35.1628338,18.1625623 35.1628338,18.1625623 C36.4513715,17.9118082 37.0956404,17.7864311 37.0956404,17.7864311 C38.3245574,17.7288006 38.9390159,17.6999853 38.9390159,17.6999853 L40.5556197,17.6926282" id="Path-30" stroke-width="2"></path>
            </g>
        </g>
    </g>
</svg>