<?xml version="1.0" encoding="UTF-8"?>
<svg width="215px" height="221px" viewBox="0 0 215 221" version="1.1" xmlns="http://www.w3.org/2000/svg" xmlns:xlink="http://www.w3.org/1999/xlink">
    <!-- Generator: Sketch 49.1 (51147) - http://www.bohemiancoding.com/sketch -->
    <title>Group 52</title>
    <desc>Created with Sketch.</desc>
    <defs>
        <rect id="path-1" x="0" y="42.1761658" width="214.300518" height="156.165803" rx="5"></rect>
        <path d="M214.300518,170.544041 L214.300518,177.823834 L0,177.823834 L0,170.544041 L-8.8817842e-16,47.1761658 C-1.2263553e-15,44.4147421 2.23857625,42.1761658 5,42.1761658 L209.300518,42.1761658 C212.061942,42.1761658 214.300518,44.4147421 214.300518,47.1761658 L214.300518,170.544041 Z M9.11917098,51.2953368 L9.11917098,168.704663 L205.181347,168.704663 L205.181347,51.2953368 L9.11917098,51.2953368 Z" id="path-2"></path>
        <rect id="path-3" x="9.11917098" y="51.2953368" width="196.062176" height="117.409326"></rect>
        <rect id="path-4" x="27.357513" y="42.1761658" width="142.487047" height="127.668394"></rect>
    </defs>
    <g id="Page-1" stroke="none" stroke-width="1" fill="none" fill-rule="evenodd">
        <g id="Group-52">
            <path d="M40.3013722,22.907501 L43.5748787,23.2610578 L53.3844789,27.840917 L58.9037674,31.2652217 L40.1085915,39.1748778 C40.237112,28.3299599 40.3013722,22.907501 40.3013722,22.907501 Z" id="Path-136" fill="#C9CEFB"></path>
            <path d="M75.2331606,214.971817 L82.8816279,192.642487 C114.450726,192.642487 130.235275,192.642487 130.235275,192.642487 L138.678955,216.127935 C96.3817588,215.35719 75.2331606,214.971817 75.2331606,214.971817 Z" id="Path-93" stroke="#9098E7" stroke-width="2" fill="#DCDFFF"></path>
            <path d="M68.4932122,219.762474 C68.4269257,218.567398 68.3937824,217.96986 68.3937824,217.96986 C68.565933,217.080852 68.6520083,216.636348 68.6520083,216.636348 C69.0525278,216.006586 69.2527876,215.691705 69.2527876,215.691705 C69.8021548,215.152824 70.0768384,214.883383 70.0768384,214.883383 C70.8819556,214.518401 71.2845141,214.335909 71.2845141,214.335909 C118.922457,214.312315 142.741428,214.300518 142.741428,214.300518 C143.297786,214.538791 143.575965,214.657927 143.575965,214.657927 C144.189416,215.00718 144.496141,215.181807 144.496141,215.181807 C144.958996,215.858175 145.190423,216.196359 145.190423,216.196359 C145.361118,216.886127 145.446465,217.231011 145.446465,217.231011 C145.525403,217.960393 145.564873,218.325084 145.564873,218.325084 C145.429133,219.054176 145.361263,219.418721 145.361263,219.418721 L144.79549,219.768961 C93.9273048,219.764636 68.4932122,219.762474 68.4932122,219.762474 Z" id="Path-92" stroke="#9098E7" stroke-width="2" fill="#DCDFFF"></path>
            <g id="Rectangle-29">
                <use fill="#DCDFFF" fill-rule="evenodd" xlink:href="#path-1"></use>
                <rect stroke="#9098E7" stroke-width="2" x="1" y="43.1761658" width="212.300518" height="154.165803" rx="5"></rect>
            </g>
            <g id="Combined-Shape">
                <use fill="#A8B0F3" fill-rule="evenodd" xlink:href="#path-2"></use>
                <path stroke="#9098E7" stroke-width="2" d="M1,176.823834 L213.300518,176.823834 L213.300518,47.1761658 C213.300518,44.9670268 211.509657,43.1761658 209.300518,43.1761658 L5,43.1761658 C2.790861,43.1761658 1,44.9670268 1,47.1761658 L1,176.823834 Z M8.11917098,50.2953368 L206.181347,50.2953368 L206.181347,169.704663 L8.11917098,169.704663 L8.11917098,50.2953368 Z"></path>
            </g>
            <g id="Rectangle-34">
                <use fill="#EFF1FC" fill-rule="evenodd" xlink:href="#path-3"></use>
                <rect stroke="#979797" stroke-width="0.2" x="9.21917098" y="51.3953368" width="195.862176" height="117.209326"></rect>
            </g>
            <path d="M159.407052,31.1014341 C172.243007,25.7749134 178.660985,23.1116531 178.660985,23.1116531 L182.429882,22.7499374 L184.285651,22.7499374 L183.772932,168.416372 L169.51414,168.340511 L169.462091,41.617578 C162.758731,34.6068154 159.407052,31.1014341 159.407052,31.1014341 Z" id="thisonethree" fill="#C9CEFB"></path>
            <path d="M158.815621,30.8744793 L158.815621,42.746114" id="Path-110" stroke="#979797"></path>
            <path d="M75.5880434,15.044667 C78.5882178,11.2712583 80.088305,9.38455404 80.088305,9.38455404 C81.3350302,7.96375841 81.9583928,7.2533606 81.9583928,7.2533606 C83.7458818,6.051 84.6396263,5.4498197 84.6396263,5.4498197 C86.5834399,4.45831182 87.5553467,3.96255788 87.5553467,3.96255788 C89.3909107,3.22449271 90.3086928,2.85546012 90.3086928,2.85546012 C91.7269072,2.36180342 92.4360144,2.11497506 92.4360144,2.11497506 C94.3170723,1.74537784 95.2576012,1.56057922 95.2576012,1.56057922 C97.7021699,1.29181057 98.9244542,1.15742625 98.9244542,1.15742625 C101.963347,1.1145136 103.482793,1.09305728 103.482793,1.09305728 C108.11639,1.10241417 110.433189,1.10709262 110.433189,1.10709262 C114.543446,1.16823507 116.598574,1.19880629 116.598574,1.19880629 C119.093154,1.3117343 120.340444,1.3681983 120.340444,1.3681983 C122.265705,1.72440549 123.228335,1.90250909 123.228335,1.90250909 C125.164889,2.57717325 126.133166,2.91450534 126.133166,2.91450534 C127.963084,3.78372832 128.878043,4.21833981 128.878043,4.21833981 C130.806853,5.25276034 131.771258,5.7699706 131.771258,5.7699706 C133.517125,7.09800393 134.390059,7.7620206 134.390059,7.7620206 C136.107048,9.25460617 136.965543,10.000899 136.965543,10.000899 C138.394405,11.3618427 139.108836,12.0423146 139.108836,12.0423146 C140.430578,13.5224781 141.091449,14.2625599 141.091449,14.2625599 C142.18072,15.863879 142.725355,16.6645385 142.725355,16.6645385 C143.724123,18.5218816 144.223507,19.4505531 144.223507,19.4505531 L145.902665,24.432856 C141.128392,24.432856 138.741255,24.432856 138.741255,24.432856 C137.968021,22.2983554 137.581404,21.231105 137.581404,21.231105 C136.838983,19.6980267 136.467773,18.9314876 136.467773,18.9314876 C135.5316,17.8217279 135.063513,17.2668481 135.063513,17.2668481 C133.77452,15.9210689 133.130024,15.2481794 133.130024,15.2481794 C131.862972,14.2061765 131.229446,13.6851751 131.229446,13.6851751 C129.910931,12.5491194 129.251673,11.9810915 129.251673,11.9810915 C127.950259,11.1838198 127.299551,10.7851839 127.299551,10.7851839 C125.966194,10.1398811 125.299516,9.81722962 125.299516,9.81722962 C123.784022,9.13901629 123.026275,8.79990963 123.026275,8.79990963 C120.981794,8.13960345 119.959554,7.80945036 119.959554,7.80945036 C117.468685,7.57923856 116.22325,7.46413266 116.22325,7.46413266 C111.391383,7.32619917 108.97545,7.25723242 108.97545,7.25723242 C104.361373,7.25932965 102.054335,7.26037827 102.054335,7.26037827 C99.0928783,7.45800228 97.6121501,7.55681428 97.6121501,7.55681428 L93.3456495,9.2284714 L82.6867784,14.2625599 C77.9542884,14.7839646 75.5880434,15.044667 75.5880434,15.044667 Z" id="Path-109" stroke="#9098E7" stroke-width="2" fill="#DCDFFF"></path>
            <path d="M30.5353966,42.2341438 L60.1673487,31.4408004 L44.2128955,23.4917939 L179.287627,23.3009514 L159.168943,30.9969325 C161.801801,33.638007 164.231683,36.1309941 166.458588,38.4758939 C168.685493,40.8207937 169.787659,42.0470035 169.765087,42.1545231 L30.5353966,42.2341438 Z" id="Path-106" stroke="#9098E7" stroke-width="2" fill="#A8B0F3"></path>
            <path d="M26.8369614,42.7461043 L26.8738651,168.55756" id="Path-107" stroke="#9098E7" stroke-width="2"></path>
            <g id="Rectangle-49">
                <use fill="#C9CEFB" fill-rule="evenodd" xlink:href="#path-4"></use>
                <rect stroke="#9098E7" stroke-width="1" x="27.857513" y="42.6761658" width="141.487047" height="126.668394"></rect>
            </g>
            <path d="M169.717902,41.6062176 L169.685149,168.505807" id="thisonetwo" stroke="#9098E7" stroke-width="2"></path>
            <path d="M40.6164862,22.5067289 L40.6164862,38.1872475" id="Path-111" stroke="#9098E7" stroke-width="2"></path>
            <path d="M183.92993,22.3042562 L183.92993,168.852746" id="thisone" stroke="#9098E7" stroke-width="2"></path>
            <path d="M96.8911917,106.010363 L111.884967,141.719639 C115.84028,132.404608 117.817937,127.747092 117.817937,127.747092 L131.172304,121.409778 L96.8911917,106.010363 Z" id="Path-94" stroke="#9098E7" stroke-width="2" fill="#EFF1FC"></path>
            <g id="Group-51" transform="translate(70.673575, 80.932642)" stroke="#9098E7" stroke-width="2">
                <path d="M5.69948187,6.83937824 L15.8048416,16.7665415" id="Path-96"></path>
                <path d="M22.7979275,0 L22.7979275,13.7198321" id="Path-97"></path>
                <path d="M28.4974093,16.6486078 L37.9437661,6.83937824" id="Path-98"></path>
                <path d="M30.7772021,22.9502044 L44.406316,22.7979275" id="Path-99"></path>
                <path d="M22.7979275,31.9170984 L22.7979275,45.7606961" id="Path-100"></path>
                <path d="M16.4010767,29.6373057 L6.83937824,39.3914564" id="Path-101"></path>
                <path d="M13.2033863,22.7979275 L0,22.7979275" id="Path-102"></path>
            </g>
            <circle id="Oval-17-Copy" stroke="#9098E7" stroke-width="2" cx="136.217617" cy="60.984456" r="5.12953368"></circle>
            <circle id="Oval-17" stroke="#9098E7" stroke-width="2" cx="63.8341969" cy="60.984456" r="5.12953368"></circle>
            <path d="M60.6102196,59.9747686 C60.6102196,46.6249527 60.6102196,39.9500448 60.6102196,39.9500448 C60.7376583,37.9108197 60.8013776,36.8912072 60.8013776,36.8912072 C60.9353524,35.4361698 61.0023397,34.7086511 61.0023397,34.7086511 C61.2627358,33.5493918 61.3929338,32.9697621 61.3929338,32.9697621 C61.778956,31.7476897 61.9719671,31.1366535 61.9719671,31.1366535 C62.4537992,29.7217687 62.6947152,29.0143264 62.6947152,29.0143264 C63.2663939,27.7147315 63.5522332,27.064934 63.5522332,27.064934 C64.4813104,25.5450958 64.9458489,24.7851766 64.9458489,24.7851766 C65.8343759,23.4207809 66.2786394,22.738583 66.2786394,22.738583 C67.3488472,21.3344321 67.8839511,20.6323567 67.8839511,20.6323567 C69.2054114,19.2552393 69.8661415,18.5666806 69.8661415,18.5666806 C71.2086719,17.0925608 71.8799371,16.3555008 71.8799371,16.3555008 C73.3242406,15.2363942 74.0463924,14.6768408 74.0463924,14.6768408 C75.6914593,13.5227497 76.5139928,12.9457041 76.5139928,12.9457041 C78.1960319,12.0500212 79.0370515,11.6021798 79.0370515,11.6021798 C80.9743185,10.8050896 81.9429521,10.4065446 81.9429521,10.4065446 C83.9811971,9.86746511 85.0003196,9.5979254 85.0003196,9.5979254 C87.1311941,9.17970152 88.1966313,8.97058959 88.1966313,8.97058959 C90.4280862,8.82389319 91.5438137,8.750545 91.5438137,8.750545 C94.0030655,8.62690657 95.2326914,8.56508736 95.2326914,8.56508736 C97.9066208,8.53169306 99.2435855,8.51499591 99.2435855,8.51499591 C101.741797,8.53527102 102.990903,8.54540857 102.990903,8.54540857 C105.380583,8.59311472 106.575424,8.61696779 106.575424,8.61696779 C108.56795,8.64718168 109.564214,8.66228863 109.564214,8.66228863 C111.406863,8.86503974 112.328188,8.9664153 112.328188,8.9664153 C114.317535,9.48164167 115.312208,9.73925485 115.312208,9.73925485 C117.063818,10.2469277 117.939624,10.5007642 117.939624,10.5007642 C119.785454,11.3304536 120.708369,11.7452982 120.708369,11.7452982 C122.561753,12.6505223 123.488445,13.1031344 123.488445,13.1031344 C125.370055,14.497744 126.310859,15.1950488 126.310859,15.1950488 C127.836661,16.512136 128.599562,17.1706796 128.599562,17.1706796 C130.086006,18.5994786 130.829228,19.3138781 130.829228,19.3138781 C132.066407,20.8742666 132.684997,21.6544609 132.684997,21.6544609 C133.860953,23.2068983 134.448931,23.9831171 134.448931,23.9831171 C135.433268,25.5621905 135.925437,26.3517272 135.925437,26.3517272 C136.869621,28.2456611 137.341713,29.1926281 137.341713,29.1926281 C138.070822,30.9887644 138.435376,31.8868326 138.435376,31.8868326 C138.799136,33.5621134 138.981015,34.3997538 138.981015,34.3997538 C139.244194,36.6745418 139.375784,37.8119358 139.375784,37.8119358 C139.451716,39.858927 139.489682,40.8824226 139.489682,40.8824226 C139.526257,51.5884766 139.544544,56.9415036 139.544544,56.9415036 C139.573565,58.7606979 139.588076,59.6702951 139.588076,59.6702951 C139.204041,60.6796776 139.012024,61.1843689 139.012024,61.1843689 C138.214934,61.8132949 137.816389,62.1277579 137.816389,62.1277579 C136.921104,62.256962 136.473461,62.3215641 136.473461,62.3215641 C135.479981,62.1935526 134.98324,62.1295469 134.98324,62.1295469 C134.171043,61.5693972 133.764945,61.2893224 133.764945,61.2893224 C133.505344,60.2946493 133.375543,59.7973127 133.375543,59.7973127 C133.214535,58.5239562 133.134031,57.8872779 133.134031,57.8872779 C133.120514,44.2246356 133.113756,37.3933144 133.113756,37.3933144 C132.835867,35.9243627 132.696923,35.1898868 132.696923,35.1898868 C132.089465,33.6827702 131.785736,32.9292119 131.785736,32.9292119 C131.066566,31.3155515 130.706981,30.5087214 130.706981,30.5087214 C129.995762,29.2818783 129.640152,28.6684568 129.640152,28.6684568 C128.874468,27.420146 128.491627,26.7959906 128.491627,26.7959906 C127.545455,25.6967615 127.072369,25.147147 127.072369,25.147147 C126.378042,24.1174043 126.030879,23.6025329 126.030879,23.6025329 C124.758214,22.2723122 124.121882,21.6072019 124.121882,21.6072019 C122.953484,20.7615632 122.369285,20.3387438 122.369285,20.3387438 C121.176093,19.4652124 120.579497,19.0284466 120.579497,19.0284466 C119.14324,18.1994108 118.425111,17.7848928 118.425111,17.7848928 C117.121898,17.1066109 116.470291,16.7674699 116.470291,16.7674699 C115.263374,16.2762468 114.659916,16.0306353 114.659916,16.0306353 C113.246902,15.6753342 112.540395,15.4976837 112.540395,15.4976837 C111.031749,15.2012674 110.277426,15.0530592 110.277426,15.0530592 C108.137208,14.8706492 107.067099,14.7794442 107.067099,14.7794442 C102.79131,14.72388 100.653416,14.6960979 100.653416,14.6960979 C95.7402994,14.7698145 93.2837411,14.8066729 93.2837411,14.8066729 C91.5220676,14.9399384 90.6412309,15.0065712 90.6412309,15.0065712 C88.7363301,15.4174365 87.7838797,15.6228692 87.7838797,15.6228692 C86.0534195,16.1116572 85.1881895,16.3560512 85.1881895,16.3560512 C83.5801477,17.0396461 82.7761268,17.3814435 82.7761268,17.3814435 C81.2814272,18.072565 80.5340774,18.4181257 80.5340774,18.4181257 C78.9366615,19.5041737 78.1379535,20.0471977 78.1379535,20.0471977 C77.0319821,20.9940032 76.4789963,21.4674059 76.4789963,21.4674059 C75.3161324,22.532645 74.7347005,23.0652645 74.7347005,23.0652645 C73.6953618,24.1847397 73.1756925,24.7444772 73.1756925,24.7444772 C72.226452,25.8553188 71.7518317,26.4107397 71.7518317,26.4107397 C70.8543921,28.0274149 70.4056723,28.8357525 70.4056723,28.8357525 C69.6306511,30.2494302 69.2431405,30.956269 69.2431405,30.956269 C68.6131175,32.3509088 68.298106,33.0482287 68.298106,33.0482287 C67.9018512,34.4836007 67.7037238,35.2012868 67.7037238,35.2012868 L67.1647952,38.5680135 L67.1647952,46.4560295 C67.1647952,53.0566602 67.1647952,56.3569755 67.1647952,56.3569755 C67.1269407,58.4199355 67.1080134,59.4514155 67.1080134,59.4514155 C66.8519697,60.3429539 66.7239479,60.7887231 66.7239479,60.7887231 L66.0934875,61.4845108 C65.4086741,61.8315405 65.0662674,62.0050554 65.0662674,62.0050554 C64.4012423,62.1179956 64.0687298,62.1744657 64.0687298,62.1744657 C63.3611901,62.2041913 63.0074202,62.2190541 63.0074202,62.2190541 C62.3740218,62.1703179 62.0573226,62.1459498 62.0573226,62.1459498 C61.410444,61.8648522 61.0870047,61.7243035 61.0870047,61.7243035 L60.6683396,60.949449 L60.6102196,59.9747686 Z" id="Path-105" stroke="#9098E7" stroke-width="2" fill="#DCDFFF"></path>
            <path d="M117.409326,127.668394 L130.583553,140.583426" id="Path-95" stroke="#9098E7" stroke-width="2"></path>
        </g>
    </g>
</svg>