<?xml version="1.0" encoding="UTF-8"?>
<svg width="137px" height="133px" viewBox="0 0 137 133" version="1.1" xmlns="http://www.w3.org/2000/svg" xmlns:xlink="http://www.w3.org/1999/xlink">
    <!-- Generator: Sketch 49 (51002) - http://www.bohemiancoding.com/sketch -->
    <title>Group 17</title>
    <desc>Created with Sketch.</desc>
    <defs></defs>
    <g id="Page-1" stroke="none" stroke-width="1" fill="none" fill-rule="evenodd">
        <g id="Artboard-3" transform="translate(-410.000000, -2941.000000)" stroke="#606061">
            <g id="Group-17" transform="translate(412.000000, 2942.000000)">
                <ellipse id="Oval-3" stroke-width="2" fill="#99A4ED" cx="67" cy="7.76119403" rx="8" ry="7.76119403"></ellipse>
                <ellipse id="Oval-3" stroke-width="3" fill="#99A4ED" cx="66.5" cy="118.843284" rx="11.5" ry="11.1567164"></ellipse>
                <path d="M8.62555962,108.34403 C10.1782726,107.51237 10.9546291,107.09654 10.9546291,107.09654 C11.7307357,106.625509 12.118789,106.389993 12.118789,106.389993 C12.8564068,105.897624 13.2252157,105.65144 13.2252157,105.65144 C13.976163,105.018441 14.3516366,104.701941 14.3516366,104.701941 C14.9579595,104.141036 15.2611209,103.860583 15.2611209,103.860583 C15.6986597,103.488316 15.9174291,103.302182 15.9174291,103.302182 C16.312647,102.844082 16.5102559,102.615032 16.5102559,102.615032 C16.840826,102.25004 17.0061111,102.067543 17.0061111,102.067543 C17.3753365,101.557879 17.5599492,101.303046 17.5599492,101.303046 C17.898517,100.850442 18.0678009,100.62414 18.0678009,100.62414 C18.3273917,100.067599 18.4571871,99.7893282 18.4571871,99.7893282 C18.6856204,99.173625 18.799837,98.8657734 18.799837,98.8657734 C18.9552916,98.2235605 19.0330189,97.9024541 19.0330189,97.9024541 C19.1706453,97.1157312 19.2394585,96.7223698 19.2394585,96.7223698 C19.2747816,95.7453915 19.2924431,95.2569024 19.2924431,95.2569024 C19.4191122,66.0869814 19.4824467,51.5020209 19.4824467,51.5020209 C19.5051533,50.288259 19.5165065,49.6813781 19.5165065,49.6813781 C19.5801257,48.4253449 19.6119352,47.7973284 19.6119352,47.7973284 C19.8743898,46.730623 20.0056171,46.1972703 20.0056171,46.1972703 C20.1891102,45.2089554 20.2808568,44.7147979 20.2808568,44.7147979 C20.5801327,43.5466811 20.7297707,42.9626227 20.7297707,42.9626227 C21.1550576,41.8000627 21.367701,41.2187827 21.367701,41.2187827 C21.691729,40.1173474 21.8537431,39.5666297 21.8537431,39.5666297 C22.402177,38.4203432 22.6763939,37.8471999 22.6763939,37.8471999 C23.2937656,36.6270874 23.6024514,36.0170312 23.6024514,36.0170312 C24.0989262,34.7993002 24.3471636,34.1904347 24.3471636,34.1904347 C25.067226,32.9915571 25.4272572,32.3921183 25.4272572,32.3921183 C26.1172488,31.2716311 26.4622446,30.7113875 26.4622446,30.7113875 C27.2320158,29.5428738 27.6169014,28.9586169 27.6169014,28.9586169 C28.3113934,28.0175347 28.6586394,27.5469936 28.6586394,27.5469936 C29.5227143,26.4886234 29.9547517,25.9594384 29.9547517,25.9594384 C30.6647905,25.2011349 31.0198099,24.8219831 31.0198099,24.8219831 C31.8910445,23.9584975 32.3266617,23.5267547 32.3266617,23.5267547 C33.3742298,22.5898401 33.8980138,22.1213828 33.8980138,22.1213828 C34.8185481,21.2551188 35.2788152,20.8219868 35.2788152,20.8219868 C36.3951165,19.9025364 36.9532671,19.4428112 36.9532671,19.4428112 C37.7776567,18.731542 38.1898515,18.3759074 38.1898515,18.3759074 C39.277923,17.6896437 39.8219588,17.3465119 39.8219588,17.3465119 C40.7697,16.7963896 41.2435706,16.5213285 41.2435706,16.5213285 C42.4860873,15.7588574 43.1073457,15.3776219 43.1073457,15.3776219 C44.3058813,14.7046548 44.9051492,14.3681713 44.9051492,14.3681713 C45.8633231,13.8861197 46.34241,13.6450939 46.34241,13.6450939 C47.5503556,13.0921932 48.1543284,12.8157429 48.1543284,12.8157429 C49.3557279,12.2568885 49.9564277,11.9774613 49.9564277,11.9774613 C51.1850341,11.5847153 51.7993373,11.3883422 51.7993373,11.3883422 C52.9692341,11.0142512 53.5541825,10.8272056 53.5541825,10.8272056 C54.8351572,10.5227729 55.4756445,10.3705565 55.4756445,10.3705565 C56.7960998,10.1875793 57.4563274,10.0960907 57.4563274,10.0960907 C58.7884428,9.9807873 59.4545005,9.9231356 59.4545005,9.9231356 C60.7810927,9.80922139 61.4443888,9.75226428 61.4443888,9.75226428 C62.8217127,9.66593557 63.5103746,9.62277121 63.5103746,9.62277121 C64.8774703,9.5423962 65.5610182,9.5022087 65.5610182,9.5022087 C66.8272642,9.48117227 67.4603873,9.47065406 67.4603873,9.47065406 C68.6014407,9.47402783 69.1719674,9.47571471 69.1719674,9.47571471 C70.6804162,9.48762212 71.4346407,9.49357582 71.4346407,9.49357582 C72.5748758,9.60590238 73.1449934,9.66206566 73.1449934,9.66206566 C74.3911922,9.79324561 75.0142917,9.85883559 75.0142917,9.85883559 C76.4783503,10.1311183 77.2103797,10.2672597 77.2103797,10.2672597 C78.5909765,10.6090023 79.281275,10.7798737 79.281275,10.7798737 C80.9046883,11.1672614 81.716395,11.3609552 81.716395,11.3609552 C82.9754814,11.8207796 83.6050245,12.0506919 83.6050245,12.0506919 C84.8103108,12.4837246 85.4129539,12.700241 85.4129539,12.700241 C86.7796405,13.3192278 87.4629838,13.6287212 87.4629838,13.6287212 C88.5252803,14.1645546 89.0564286,14.4324713 89.0564286,14.4324713 C90.2046417,15.0010501 90.7787483,15.2853395 90.7787483,15.2853395 C91.9623508,16.0511843 92.5541521,16.4341067 92.5541521,16.4341067 C93.965638,17.4379013 94.671381,17.9397986 94.671381,17.9397986 C96.0059511,18.8134054 96.6732362,19.2502089 96.6732362,19.2502089 C97.9971691,20.3155251 98.6591355,20.8481831 98.6591355,20.8481831 C99.9712037,21.933345 100.627238,22.4759259 100.627238,22.4759259 C101.785884,23.6861156 102.365207,24.2912104 102.365207,24.2912104 C103.340564,25.4269787 103.828242,25.9948629 103.828242,25.9948629 C104.820169,27.3985479 105.316133,28.1003905 105.316133,28.1003905 C106.20271,29.410007 106.645998,30.0648152 106.645998,30.0648152 C107.37813,31.3762178 107.744195,32.0319191 107.744195,32.0319191 C108.529922,33.2816017 108.922786,33.906443 108.922786,33.906443 C109.622188,35.2765888 109.971888,35.9616617 109.971888,35.9616617 C110.625263,37.3377613 110.95195,38.025811 110.95195,38.025811 C111.540274,39.5344797 111.834436,40.2888141 111.834436,40.2888141 C112.364255,41.8449139 112.629164,42.6229639 112.629164,42.6229639 C113.02438,44.345569 113.221988,45.2068716 113.221988,45.2068716 C113.537834,46.7367751 113.695756,47.5017269 113.695756,47.5017269 C113.857361,49.4521605 113.938164,50.4273773 113.938164,50.4273773 L113.932334,54.894144 C113.93622,81.8026496 113.938164,95.2569024 113.938164,95.2569024 C113.987259,96.3500577 114.011806,96.8966354 114.011806,96.8966354 C114.086677,97.6600987 114.124112,98.0418304 114.124112,98.0418304 C114.31006,98.7217434 114.403034,99.0617 114.403034,99.0617 C114.667943,99.5913812 114.800398,99.8562218 114.800398,99.8562218 C115.085149,100.418252 115.227525,100.699266 115.227525,100.699266 C115.613536,101.262288 115.806542,101.543799 115.806542,101.543799 C116.271514,102.129445 116.504,102.422268 116.504,102.422268 C117.022158,102.982909 117.281237,103.263229 117.281237,103.263229 C117.891654,103.797872 118.196862,104.065193 118.196862,104.065193 C118.803597,104.509736 119.106964,104.732008 119.106964,104.732008 C119.685878,105.05966 119.975334,105.223486 119.975334,105.223486 C120.808316,105.637666 121.224806,105.844755 121.224806,105.844755 L127.864313,108.419435 L112.629164,113.084758 C43.2934277,109.924273 8.62555962,108.34403 8.62555962,108.34403 Z" id="Path-21" stroke-width="3" fill="#FFFFFF"></path>
                <path d="M29.7053078,70.2479371 L29.5033096,49.8774261" id="Path-22" stroke-width="2"></path>
                <path d="M30.7680318,45.5584739 C30.8529423,45.0740768 30.8953975,44.8318783 30.8953975,44.8318783 C31.0166314,44.2228411 31.0772484,43.9183224 31.0772484,43.9183224 C31.2470693,43.4485423 31.3319798,43.2136522 31.3319798,43.2136522 C31.4796095,42.8201292 31.5534244,42.6233676 31.5534244,42.6233676 C31.7134345,42.2160209 31.7934396,42.0123475 31.7934396,42.0123475 L32.0762019,41.468803" id="Path-23" stroke-width="2"></path>
                <path d="M34.0341649,37.6395168 C34.4709808,36.9465174 34.6893888,36.6000177 34.6893888,36.6000177 C35.1016776,35.9957394 35.307822,35.6936003 35.307822,35.6936003 C35.7379805,35.1037123 35.9530598,34.8087683 35.9530598,34.8087683 C36.5189349,34.1198481 36.8018725,33.7753879 36.8018725,33.7753879 C37.2082047,33.2753542 37.4113708,33.0253373 37.4113708,33.0253373 C37.7547501,32.595442 37.9264398,32.3804944 37.9264398,32.3804944 C38.353328,31.884993 38.5667722,31.6372423 38.5667722,31.6372423 C39.0796221,31.0638975 39.336047,30.7772251 39.336047,30.7772251 C39.8239026,30.2676734 40.0678304,30.0128975 40.0678304,30.0128975 C40.5927103,29.4887289 40.8551502,29.2266446 40.8551502,29.2266446 C41.4487059,28.6902386 41.7454837,28.4220356 41.7454837,28.4220356 C42.2595016,27.9750306 42.5165105,27.7515281 42.5165105,27.7515281 C43.0858895,27.2314386 43.370579,26.9713938 43.370579,26.9713938 C44.108611,26.4290958 44.477627,26.1579467 44.477627,26.1579467 C45.3142345,25.6025047 45.7325383,25.3247838 45.7325383,25.3247838 C46.4594747,24.8457122 46.8229429,24.6061765 46.8229429,24.6061765 C47.6630543,24.1693693 48.08311,23.9509657 48.08311,23.9509657 C48.8988111,23.5090596 49.3066617,23.2881066 49.3066617,23.2881066 C50.1923234,22.89549 50.6351543,22.6991817 50.6351543,22.6991817 C51.484259,22.3015796 51.9088113,22.1027785 51.9088113,22.1027785 C52.7526602,21.8001295 53.1745846,21.648805 53.1745846,21.648805 C53.9901689,21.2884815 54.3979611,21.1083198 54.3979611,21.1083198 C55.278951,20.8092967 55.719446,20.6597851 55.719446,20.6597851 C56.5475274,20.3998537 56.9615682,20.269888 56.9615682,20.269888 C57.7080094,20.0807748 58.0812301,19.9862183 58.0812301,19.9862183 C58.9863967,19.7295728 59.43898,19.6012501 59.43898,19.6012501 C60.2260662,19.4119103 60.6196092,19.3172404 60.6196092,19.3172404 C61.5785019,19.2296524 62.0579482,19.1858584 62.0579482,19.1858584 C63.0204615,19.1141336 63.5017182,19.0782712 63.5017182,19.0782712 C64.385628,19.0361202 64.8275829,19.0150447 64.8275829,19.0150447 C65.6973604,18.9862641 66.1322491,18.9718738 66.1322491,18.9718738 L67.1977762,18.9722138" id="Path-24" stroke-width="2"></path>
                <path d="M76.1129095,102.481194 L116.114145,102.481194" id="Path-25" stroke-width="2"></path>
                <path d="M0.127059973,106.873421 C89.0102766,106.873421 133.451885,106.873421 133.451885,106.873421 C133.418694,109.962541 133.402099,111.507102 133.402099,111.507102 C133.224368,112.777962 133.135502,113.413392 133.135502,113.413392 C132.617036,114.227859 132.357803,114.635093 132.357803,114.635093 C131.986842,115.263061 131.801361,115.577045 131.801361,115.577045 C131.231669,116.117927 130.946823,116.388368 130.946823,116.388368 C130.363883,116.840589 130.072413,117.0667 130.072413,117.0667 C129.315078,117.401407 128.93641,117.56876 128.93641,117.56876 L127.416737,117.765492 C46.4602576,117.634337 5.98201768,117.56876 5.98201768,117.56876 C5.14492005,117.466197 4.72637124,117.414916 4.72637124,117.414916 C4.06123552,117.188543 3.72866767,117.075356 3.72866767,117.075356 C2.93293823,116.689499 2.53507351,116.496571 2.53507351,116.496571 C2.01891738,116.054317 1.76083932,115.83319 1.76083932,115.83319 C1.26415058,115.033934 1.01580621,114.634306 1.01580621,114.634306 C0.688645955,113.75793 0.525065831,113.319743 0.525065831,113.319743 L0.442329437,111.711655 L0.127059973,106.873421 Z" id="Path-20" stroke-width="3" fill="#99A4ED"></path>
            </g>
        </g>
    </g>
</svg>